<?xml version="1.0" encoding="UTF-8" standalone="no"?>
<!-- Created with Inkscape (http://www.inkscape.org/) -->

<svg
   xmlns:dc="http://purl.org/dc/elements/1.1/"
   xmlns:cc="http://creativecommons.org/ns#"
   xmlns:rdf="http://www.w3.org/1999/02/22-rdf-syntax-ns#"
   xmlns:svg="http://www.w3.org/2000/svg"
   xmlns="http://www.w3.org/2000/svg"
   xmlns:sodipodi="http://sodipodi.sourceforge.net/DTD/sodipodi-0.dtd"
   xmlns:inkscape="http://www.inkscape.org/namespaces/inkscape"
   width="460"
   height="120"
   viewBox="0 0 460 120"
   id="svg2"
   version="1.1"
   inkscape:version="0.91 r13725"
   inkscape:export-filename="/Users/mac/Documents/web-design/websites/isobel_bootstrap/img/amazon.png"
   inkscape:export-xdpi="43.615353"
   inkscape:export-ydpi="43.615353"
   sodipodi:docname="amazon.svg">
  <defs
     id="defs4" />
  <sodipodi:namedview
     id="base"
     pagecolor="#ffffff"
     bordercolor="#666666"
     borderopacity="1.0"
     inkscape:pageopacity="0.0"
     inkscape:pageshadow="2"
     inkscape:zoom="1.4142136"
     inkscape:cx="197.73221"
     inkscape:cy="52.997614"
     inkscape:document-units="px"
     inkscape:current-layer="layer1"
     showgrid="false"
     fit-margin-top="0"
     fit-margin-left="0"
     fit-margin-right="0"
     fit-margin-bottom="0"
     units="px"
     inkscape:window-width="1280"
     inkscape:window-height="751"
     inkscape:window-x="0"
     inkscape:window-y="1"
     inkscape:window-maximized="1"
     showguides="false" />
  <metadata
     id="metadata7">
    <rdf:RDF>
      <cc:Work
         rdf:about="">
        <dc:format>image/svg+xml</dc:format>
        <dc:type
           rdf:resource="http://purl.org/dc/dcmitype/StillImage" />
        <dc:title></dc:title>
      </cc:Work>
    </rdf:RDF>
  </metadata>
  <g
     inkscape:label="Layer 1"
     inkscape:groupmode="layer"
     id="layer1"
     transform="translate(-132.14323,-339.68077)">
    <flowRoot
       xml:space="preserve"
       id="flowRoot4136"
       style="font-style:normal;font-variant:normal;font-weight:normal;font-stretch:normal;font-size:20px;line-height:125%;font-family:FontAwesome;-inkscape-font-specification:FontAwesome;letter-spacing:0px;word-spacing:0px;fill:#000000;fill-opacity:1;stroke:none;stroke-width:1px;stroke-linecap:butt;stroke-linejoin:miter;stroke-opacity:1"><flowRegion
         id="flowRegion4138"><rect
           id="rect4140"
           width="54.285713"
           height="114.28571"
           x="294.28571"
           y="152.3622"
           style="font-style:normal;font-variant:normal;font-weight:normal;font-stretch:normal;font-family:FontAwesome;-inkscape-font-specification:FontAwesome" /></flowRegion><flowPara
         id="flowPara4142" /></flowRoot>    <text
       xml:space="preserve"
       style="font-style:normal;font-variant:normal;font-weight:normal;font-stretch:normal;font-size:20px;line-height:125%;font-family:FontAwesome;-inkscape-font-specification:FontAwesome;letter-spacing:0px;word-spacing:0px;fill:#000000;fill-opacity:1;stroke:none;stroke-width:1px;stroke-linecap:butt;stroke-linejoin:miter;stroke-opacity:1"
       x="305.625"
       y="160.13007"
       id="text4144"
       sodipodi:linespacing="125%"><tspan
         sodipodi:role="line"
         id="tspan4146"
         x="305.625"
         y="160.13007" /></text>
    <text
       xml:space="preserve"
       style="font-style:normal;font-weight:normal;font-size:20px;line-height:125%;font-family:sans-serif;letter-spacing:0px;word-spacing:0px;fill:#000000;fill-opacity:1;stroke:none;stroke-width:1px;stroke-linecap:butt;stroke-linejoin:miter;stroke-opacity:1"
       x="311.33929"
       y="144.14792"
       id="text4148"
       sodipodi:linespacing="125%"><tspan
         sodipodi:role="line"
         id="tspan4150"
         x="311.33929"
         y="144.14792" /></text>
    <text
       xml:space="preserve"
       style="font-style:normal;font-weight:normal;font-size:20px;line-height:125%;font-family:sans-serif;letter-spacing:0px;word-spacing:0px;fill:#000000;fill-opacity:1;stroke:none;stroke-width:1px;stroke-linecap:butt;stroke-linejoin:miter;stroke-opacity:1"
       x="316.96429"
       y="128.34435"
       id="text4152"
       sodipodi:linespacing="125%"><tspan
         sodipodi:role="line"
         id="tspan4154"
         x="316.96429"
         y="128.34435" /></text>
    <g
       id="g4173"
       transform="matrix(0.87068426,0,0,0.87068426,554.57058,210.14107)">
      <path
         style="fill:#fd9e0e"
         d="m -100.54674,255.16557 c -17.29307,-0.85259 -33.59538,-6.43926 -46.75831,-16.02366 -4.94285,-3.59907 -7.68845,-6.0592 -7.68845,-6.88906 0,-1.39104 0.90499,-1.22351 4.99635,0.92493 12.90092,6.77445 26.43185,10.90577 42.07578,12.84677 5.14748,0.63867 20.464727,0.54385 25.732761,-0.15929 9.456668,-1.26222 18.925998,-3.61288 26.869238,-6.67001 2.437338,-0.93807 4.710218,-1.70558 5.050844,-1.70558 0.785707,0 1.658034,0.94949 1.658034,1.80469 0,0.89786 -1.801306,2.37069 -5.846539,4.78036 -8.163438,4.86284 -19.06071,8.57897 -29.928277,10.20599 -3.287279,0.49215 -11.552419,1.1308 -13.337105,1.03057 -0.51779,-0.0291 -1.788738,-0.0947 -2.824326,-0.14571 z m 52.996318,-5.26682 c -0.09651,-0.25152 0.401594,-1.95132 1.10691,-3.77734 2.225131,-5.76073 3.009314,-9.67939 2.228825,-11.13775 -0.171274,-0.32003 -0.842049,-0.76195 -1.490619,-0.98207 -1.405472,-0.47698 -7.198555,-0.46886 -11.053479,0.0155 -2.2398,0.28142 -2.729323,0.261 -3.120467,-0.13014 -0.409356,-0.40936 -0.380657,-0.55256 0.243988,-1.21746 0.996943,-1.0612 4.583581,-2.64344 7.30678,-3.22339 3.107148,-0.66171 9.022556,-0.6652 11.287863,-0.007 2.639452,0.76731 2.907269,1.21424 2.705245,4.51451 -0.31592,5.16078 -2.706853,10.91842 -5.992634,14.43093 -1.806922,1.9316 -2.870389,2.43122 -3.222412,1.51387 z m -41.621832,-22.1642 c -112.806576,201.0007 -56.403286,100.50035 0,0 z"
         id="path4177"
         inkscape:connector-curvature="0"
         sodipodi:nodetypes="ssssssssssssscsssssssssscccc" />
      <path
         style="fill:#0b0b0b"
         d="m -18.529578,230.65526 c -5.118091,-1.2434 -8.705859,-4.92757 -10.728229,-11.01648 -0.763072,-2.29744 -0.835373,-2.94997 -0.851864,-7.68844 -0.02012,-5.7802 0.335373,-7.70676 2.084588,-11.29732 2.545358,-5.22477 7.191063,-8.15917 12.917511,-8.15917 8.2562776,0 13.860551,5.65638 15.28994756,15.43211 0.44044054,3.0122 0.22010824,7.7791 -0.48335982,10.45756 -2.38292174,9.07297 -10.07634374,14.25229 -18.22859374,12.27174 z m 5.833647,-7.48714 c 2.460316,-1.658 3.2480246,-4.94038 3.0309486,-12.62995 -0.1642883,-5.81981 -0.5942776,-7.90568 -1.9656836,-9.5355 -2.344444,-2.78622 -6.582325,-1.58754 -7.846806,2.21946 -0.725495,2.18426 -1.03433,6.87097 -0.739636,11.22435 0.312624,4.61817 0.939848,6.70215 2.481039,8.24334 1.017774,1.01777 1.383858,1.18545 2.588127,1.18545 0.935596,0 1.752093,-0.23547 2.452011,-0.70715 z m -167.487509,7.04999 c -3.22448,-1.1537 -5.05505,-3.22549 -5.95696,-6.74192 -1.14318,-4.45719 0.13026,-8.97261 3.37863,-11.98002 2.59592,-2.40337 5.76658,-3.4965 12.35914,-4.26101 1.72598,-0.20015 3.33141,-0.52325 3.56762,-0.718 0.61012,-0.50302 0.31155,-4.21843 -0.42993,-5.35006 -0.80204,-1.22407 -2.25483,-1.88973 -4.08727,-1.87277 -2.51568,0.0233 -4.29926,1.25171 -5.28245,3.63826 -0.26765,0.64966 -0.71454,1.26867 -0.9931,1.37556 -0.71329,0.27372 -6.7555,-0.45333 -7.26218,-0.87384 -1.12451,-0.93326 0.23059,-4.64323 2.57191,-7.04136 1.82048,-1.86464 3.83749,-2.94433 7.02501,-3.76042 2.52375,-0.64615 8.47819,-0.48791 10.90023,0.28967 3.59607,1.1545 6.29848,3.90611 6.98635,7.11353 0.19587,0.91334 0.3441,5.15442 0.3484,9.96871 0.004,4.6085 0.13346,8.92192 0.28742,9.58539 0.15396,0.66347 0.78607,2.02631 1.40468,3.02853 0.61861,1.00223 1.12474,2.09712 1.12474,2.43309 0,0.79409 -5.44041,5.41392 -6.37555,5.41392 -0.42946,0 -1.38612,-0.74995 -2.60202,-2.03979 -1.05758,-1.12189 -2.01416,-2.03979 -2.12574,-2.03979 -0.11158,0 -0.94396,0.60362 -1.84974,1.34139 -2.59891,2.11685 -4.54781,2.81639 -8.2294,2.95392 -2.47903,0.0926 -3.47875,-0.004 -4.75979,-0.46299 z m 10.10201,-6.89257 c 1.02653,-0.55291 1.96222,-1.72311 2.70013,-3.37686 0.555,-1.24381 0.70311,-2.17724 0.72142,-4.54639 l 0.023,-2.98124 -2.22071,0.0397 c -3.46305,0.0619 -6.27138,1.5349 -7.23416,3.79446 -0.58585,1.37493 -0.54345,4.30549 0.0814,5.62215 0.96995,2.04402 3.62066,2.69147 5.92895,1.44818 z m 79.701416,7.03601 c -2.944711,-0.98134 -4.671491,-2.47451 -5.867943,-5.07411 -0.614801,-1.33582 -0.722154,-2.08223 -0.722154,-5.02103 0,-3.08522 0.08902,-3.64187 0.837936,-5.2396 1.019767,-2.17553 3.109807,-4.32963 5.256199,-5.41729 1.952828,-0.98957 5.724483,-1.89403 9.910388,-2.37654 1.725978,-0.19895 3.332115,-0.52166 3.569192,-0.71713 0.321506,-0.26508 0.384038,-0.85886 0.246054,-2.33651 -0.317135,-3.3961 -1.758128,-4.87123 -4.758509,-4.87123 -2.400827,0 -4.025551,1.01183 -5.077641,3.16223 -0.455756,0.93152 -1.034211,1.77257 -1.285458,1.86898 -0.251247,0.0964 -1.958075,0.0124 -3.792955,-0.18681 -4.522343,-0.49086 -4.710267,-0.79897 -2.944915,-4.82827 2.09841,-4.78946 7.472084,-7.35008 14.828764,-7.06609 6.076007,0.23455 9.337574,1.88397 11.297313,5.71318 l 1.09835,2.14611 0.156904,10.07449 0.15691,10.07448 0.941441,1.52049 c 0.517795,0.83627 1.141573,1.83794 1.386168,2.22594 0.244601,0.388 0.360169,0.92581 0.256814,1.19514 -0.349269,0.91019 -5.608376,5.25739 -6.36022,5.25739 -0.483898,0 -1.329916,-0.66681 -2.588009,-2.03979 -1.028001,-1.12189 -1.970348,-2.03979 -2.094092,-2.03979 -0.123749,0 -1.025064,0.62812 -2.002927,1.39583 -2.769076,2.17398 -4.33803,2.73654 -8.024618,2.8773 -2.105584,0.0804 -3.58863,-0.0193 -4.422992,-0.29737 z m 10.331554,-7.54481 c 1.797866,-1.3713 2.99845,-4.78984 3.003728,-8.55283 0.0025,-1.77636 -0.516097,-2.13405 -2.750778,-1.89734 -4.874391,0.51634 -7.616092,3.02836 -7.594628,6.9584 0.0061,1.11744 0.933555,3.2752 1.669541,3.88425 1.357992,1.1238 3.916285,0.94678 5.672137,-0.39248 z m -68.30872,7.32358 c -0.51274,-0.31162 -0.54918,-1.52564 -0.54918,-18.29972 0,-13.55511 0.0925,-18.05842 0.37658,-18.34254 0.24817,-0.24818 1.57803,-0.37658 3.90026,-0.37658 4.23513,0 4.50996,0.16392 4.50996,2.68984 0,0.93696 0.13443,1.70356 0.29874,1.70356 0.1643,0 0.71688,-0.60775 1.22795,-1.35056 1.84927,-2.68783 4.43317,-3.82392 8.20095,-3.60581 3.54518,0.20523 5.15193,1.27222 7.7675,5.15812 0.37967,0.56408 0.40486,0.56264 0.78453,-0.0449 0.21575,-0.3452 1.17865,-1.41977 2.13979,-2.38794 2.24983,-2.26629 4.06178,-2.92681 7.47026,-2.72316 2.66736,0.15937 4.52398,0.91682 6.26507,2.55596 2.6886,2.53117 2.93281,4.38373 2.81197,21.33105 -0.0897,12.57459 -0.11924,13.14598 -0.70275,13.57246 -0.43606,0.3187 -1.56311,0.44521 -3.96637,0.44521 -5.13373,0 -4.65538,1.40477 -4.75527,-13.96473 -0.0836,-12.86037 -0.084,-12.86686 -0.8055,-13.87843 -1.93406,-2.71155 -6.49698,-1.62634 -7.65334,1.82021 -0.23695,0.70622 -0.40503,5.25022 -0.49021,13.25255 l -0.12963,12.17783 -0.83732,0.32028 c -0.96075,0.36749 -7.40197,0.24719 -7.79434,-0.14559 -0.14338,-0.14353 -0.33131,-5.9334 -0.41761,-12.86638 -0.13618,-10.94036 -0.22695,-12.75995 -0.68719,-13.77534 -0.73312,-1.61739 -2.23762,-2.51094 -3.93704,-2.33828 -1.81396,0.1843 -2.84135,0.93781 -3.64274,2.67169 -0.64693,1.39969 -0.68363,2.00534 -0.83364,13.75581 -0.0863,6.76041 -0.27419,12.40906 -0.41754,12.55256 -0.39951,0.39994 -7.4953,0.48087 -8.13389,0.0928 z M 6.2562766,230.02008 C 5.6676599,229.5898 5.6444875,228.98936 5.56907,212.21112 5.508002,198.62439 5.57813,194.67681 5.8915024,194.06293 c 0.3870305,-0.75819 0.5198861,-0.78753 3.9558092,-0.87359 2.3525394,-0.0589 3.7032324,0.0337 3.9925144,0.27379 0.273105,0.22666 0.445465,1.02563 0.459242,2.12884 0.0121,0.9713 0.131212,2.0454 0.264615,2.38688 0.214179,0.54822 0.34455,0.45642 1.114149,-0.78454 1.208333,-1.9484 2.306892,-3.07287 3.777112,-3.86621 1.047201,-0.56507 1.7754,-0.67734 4.393397,-0.67734 2.650281,0 3.34274,0.10936 4.45419,0.70345 1.896988,1.01397 3.428306,2.72688 4.246779,4.75039 0.702338,1.73639 0.7149,1.9972 0.806062,16.7299 l 0.0926,14.96601 -0.670293,0.35874 c -1.033026,0.55286 -7.767904,0.28724 -8.152001,-0.32151 -0.172614,-0.27358 -0.299016,-5.29425 -0.30181,-11.98794 -0.0052,-12.46028 -0.17085,-14.15982 -1.52824,-15.67886 -1.740188,-1.94743 -5.025928,-1.38175 -6.458372,1.11189 -1.2672,2.20596 -1.432618,3.98555 -1.432618,15.41216 l 0,10.79335 -0.697454,0.48852 c -0.951339,0.66634 -7.0531126,0.69951 -7.9509074,0.0432 z M -60.20155,229.00091 c -0.11507,-0.11507 -0.209214,-2.0131 -0.209214,-4.21787 l 0,-4.00864 1.679808,-2.45069 c 0.92389,-1.34789 3.91163,-5.62807 6.63941,-9.51152 2.727784,-3.88345 4.972717,-7.34325 4.988745,-7.68844 0.02803,-0.60352 -0.19735,-0.63092 -5.86529,-0.71305 l -5.894426,-0.0854 -0.332774,-0.85602 c -0.467621,-1.20293 -0.1842,-5.69973 0.381832,-6.05805 0.712087,-0.45078 23.617703,-0.36814 24.072698,0.0868 0.230937,0.23094 0.376574,1.36016 0.376574,2.9198 0,3.0255 0.475383,2.16791 -7.412007,13.3712 -3.022071,4.29256 -5.406665,7.94706 -5.299093,8.12111 0.107567,0.17404 0.858022,0.32137 1.667673,0.3274 3.64087,0.0271 8.956847,1.52676 10.744755,3.03118 l 0.946793,0.79668 -0.0887,3.30356 c -0.102698,3.82485 -0.394813,4.29893 -2.198967,3.56875 -3.271635,-1.3241 -5.77725,-1.99854 -8.598377,-2.31444 -3.881337,-0.43463 -8.129008,0.14599 -11.954585,1.63407 -2.470802,0.96109 -3.265242,1.12316 -3.644859,0.74354 z"
         id="path4175"
         inkscape:connector-curvature="0" />
    </g>
    <flowRoot
       xml:space="preserve"
       id="flowRoot4247"
       style="font-style:normal;font-variant:normal;font-weight:normal;font-stretch:normal;font-size:20px;line-height:125%;font-family:FontAwesome;-inkscape-font-specification:'FontAwesome, Normal';text-align:start;letter-spacing:0px;word-spacing:0px;writing-mode:lr-tb;text-anchor:start;fill:#000000;fill-opacity:1;stroke:none;stroke-width:1px;stroke-linecap:butt;stroke-linejoin:miter;stroke-opacity:1"><flowRegion
         id="flowRegion4249"><rect
           id="rect4251"
           width="84.852814"
           height="28.284271"
           x="306.88434"
           y="1132.8784" /></flowRegion><flowPara
         id="flowPara4253" /></flowRoot>    <flowRoot
       xml:space="preserve"
       id="flowRoot4255"
       style="font-style:normal;font-variant:normal;font-weight:normal;font-stretch:normal;font-size:20px;line-height:125%;font-family:FontAwesome;-inkscape-font-specification:'FontAwesome, Normal';text-align:start;letter-spacing:0px;word-spacing:0px;writing-mode:lr-tb;text-anchor:start;fill:#000000;fill-opacity:1;stroke:none;stroke-width:1px;stroke-linecap:butt;stroke-linejoin:miter;stroke-opacity:1"><flowRegion
         id="flowRegion4257"><rect
           id="rect4259"
           width="73.539108"
           height="24.04163"
           x="315.36963"
           y="1138.5353" /></flowRegion><flowPara
         id="flowPara4261" /></flowRoot>    <text
       xml:space="preserve"
       style="font-style:normal;font-variant:normal;font-weight:normal;font-stretch:normal;font-size:20px;line-height:125%;font-family:FontAwesome;-inkscape-font-specification:'FontAwesome, Normal';text-align:start;letter-spacing:0px;word-spacing:0px;writing-mode:lr-tb;text-anchor:start;fill:#000000;fill-opacity:1;stroke:none;stroke-width:1px;stroke-linecap:butt;stroke-linejoin:miter;stroke-opacity:1"
       x="-1058.6246"
       y="869.80273"
       id="text4217"
       sodipodi:linespacing="125%"><tspan
         sodipodi:role="line"
         id="tspan4219"
         x="-1058.6246"
         y="869.80273">BUY NOW</tspan></text>
    <path
       style="opacity:1;fill:#eb9200;fill-opacity:1;stroke:none;stroke-width:3.3661418;stroke-miterlimit:4;stroke-dasharray:none;stroke-opacity:1"
       d="m 132.14323,339.68077 0,120 209.72122,0 26.35523,-60.00001 -26.35523,-59.99999 z m 45.7907,28.79808 c 7.38245,0 13.37137,5.99046 13.37137,13.37291 l 0,8.91373 c 0,1.2188 -1.00848,2.22882 -2.22728,2.22882 -1.2188,0 -2.22881,-1.01002 -2.22881,-2.22882 l 0,-8.91373 c 0,-4.91002 -4.00525,-8.91527 -8.91528,-8.91527 -4.91003,0 -8.91528,4.00525 -8.91528,8.91527 l 0,8.91373 c 0,1.2188 -1.01001,2.22882 -2.22882,2.22882 -1.2188,0 -2.22727,-1.01002 -2.22727,-2.22882 l 0,-8.91373 c 0,-7.38245 5.98892,-13.37291 13.37137,-13.37291 z m -24.51546,17.82901 8.91527,0 0,4.45763 c 0,2.47243 1.98367,4.45764 4.45609,4.45764 2.47243,0 4.45764,-1.98521 4.45764,-4.45764 l 0,-4.45763 13.37291,0 0,4.45763 c 0,2.47243 1.98522,4.45764 4.45764,4.45764 2.47243,0 4.4561,-1.98521 4.4561,-4.45764 l 0,-4.45763 8.91527,0 c 1.14915,0 2.08952,0.8713 2.22883,1.98564 l 2.99395,26.98745 -59.47649,0 2.99397,-26.98745 c 0.13929,-1.11434 1.07967,-1.98564 2.22882,-1.98564 z m 151.10589,4.10913 c 2.88678,0 5.0927,0.89521 6.61831,2.68574 1.5256,1.79053 2.28922,4.30287 2.28922,7.53679 0,3.23392 -0.80051,5.80081 -2.39919,7.70097 -1.58955,1.90015 -3.85004,2.84991 -6.78248,2.84991 -2.69494,0 -4.76448,-0.94015 -6.20787,-2.82204 -1.43424,-1.88188 -2.15137,-4.45839 -2.15137,-7.72884 0,-2.85936 0.78129,-5.27547 2.34344,-7.2487 1.57127,-1.98236 3.66809,-2.97383 6.28994,-2.97383 z m -82.06671,0.17813 c 2.08287,0 3.70806,0.4476 4.87738,1.34287 1.17846,0.88612 1.76726,2.15516 1.76726,3.80866 0,1.58955 -0.8391,2.84572 -2.52001,3.76839 2.49396,0.86786 3.74052,2.65827 3.74052,5.37148 0,1.82707 -0.68985,3.28054 -2.06929,4.3585 -1.37943,1.06884 -3.16024,1.60308 -5.34359,1.60308 l -6.13971,0 0,-20.06092 c 2.70405,-0.1279 4.60033,-0.19206 5.68744,-0.19206 z m 10.97527,0.17811 3.56239,0 0,13.6068 c 0,1.07797 0.32889,1.95551 0.98664,2.63153 0.65774,0.67601 1.56255,1.01296 2.71361,1.01296 1.28808,0 2.28915,-0.32889 3.0017,-0.98664 0.72169,-0.66687 1.08266,-1.57495 1.08266,-2.72599 l 0,-13.53866 3.56239,0 0,13.8128 c 0,2.06459 -0.69465,3.68173 -2.08323,4.85106 -1.37943,1.16932 -3.2244,1.75331 -5.53564,1.75331 -2.32952,0 -4.12953,-0.57113 -5.39935,-1.71304 -1.26068,-1.14193 -1.89117,-2.77673 -1.89117,-4.90528 z m 17.0329,0 3.78233,0 4.75501,8.56369 4.76897,-8.56369 3.76838,0 -6.7422,11.83955 0,8.23532 -3.5624,0 0,-8.23532 z m 27.63952,0 1.71304,0 9.48217,12.11369 0,-12.11369 3.42609,0 0,20.34902 -1.45284,0 -9.74237,-12.70226 0,12.44205 -3.42609,0 z m 36.4913,0 3.71263,0 3.76839,12.11369 4.07043,-12.11369 1.56125,0 4.08437,12.11369 3.75445,-12.11369 3.71419,0 -6.49595,20.34902 -1.46679,0 -4.38483,-12.66199 -4.26094,12.66199 -1.46677,0 z m -92.22108,2.79571 c -0.55725,0 -1.23904,0.0225 -2.04295,0.0682 l 0,4.80924 c 0.54812,0.0365 1.12405,0.0558 1.72699,0.0558 2.32037,0 3.4803,-0.87273 3.4803,-2.61759 0,-1.54388 -1.05407,-2.31556 -3.16434,-2.31556 z m 82.1488,0.0139 c -1.58955,0 -2.80884,0.63856 -3.65842,1.9175 -0.84959,1.26982 -1.27472,2.9832 -1.27472,5.13914 0,2.34779 0.39785,4.16549 1.19263,5.45356 0.79477,1.28809 1.94989,1.93144 3.46637,1.93144 1.78139,0 3.13861,-0.63048 4.07041,-1.89116 0.94095,-1.26068 1.41102,-3.09124 1.41102,-5.49384 0,-4.70471 -1.73585,-7.05664 -5.20729,-7.05664 z m -82.39662,7.60495 c -0.34713,0 -0.94554,0.0128 -1.79513,0.0403 l 0,6.63225 c 0.72169,0.0639 1.30724,0.096 1.75486,0.096 1.58955,0 2.73987,-0.26952 3.45243,-0.80851 0.72169,-0.53898 1.08265,-1.43419 1.08265,-2.68572 0,-1.14193 -0.33368,-1.97297 -1.00057,-2.49368 -0.66687,-0.52072 -1.8316,-0.78062 -3.49424,-0.78062 z m 56.46394,12.9733 c 1.85753,0 3.27896,0.60001 4.26558,1.79978 0.99271,1.19979 1.49001,2.87147 1.49001,5.01523 0,2.19858 -0.4973,3.92162 -1.49001,5.17012 -0.99272,1.24241 -2.41415,1.86328 -4.26558,1.86328 -1.687,0 -3.00893,-0.65776 -3.9651,-1.97325 -0.95007,-1.31549 -1.42496,-3.00164 -1.42496,-5.06015 0,-1.9367 0.4845,-3.55703 1.45284,-4.86033 0.97444,-1.30332 2.28677,-1.95468 3.93722,-1.95468 z m -12.24223,0.10063 c 3.21563,0 4.82471,1.27864 4.82471,3.83654 0,0.84046 -0.25986,1.59772 -0.77753,2.27373 -0.51767,0.66993 -1.13215,1.0886 -1.8447,1.25304 l 3.883,6.15674 -2.09252,0 -3.57168,-5.74629 c -0.40805,0 -1.05455,-0.0305 -1.93763,-0.0914 l 0,5.83768 -1.82612,0 0,-13.38375 c 0.067,0 0.53868,-0.0209 1.41567,-0.0636 0.88308,-0.0487 1.52483,-0.0728 1.9268,-0.0728 z m -13.26451,0.1363 8.26785,0 0,1.6449 -6.44018,0 0,3.71727 4.70545,0 0,1.55352 -4.70545,0 0,6.46806 -1.82767,0 z m 34.67913,0 0.8302,0 3.18911,9.76559 2.9413,-9.76559 0.82245,0 2.71361,13.38375 -1.73628,0 -1.58914,-8.59621 -2.92426,8.77898 -0.45692,0 -3.0048,-8.77898 -1.55351,8.59621 -1.73473,0 z m -9.17239,1.40637 c -1.13278,0 -1.9943,0.46362 -2.58506,1.38933 -0.59075,0.92572 -0.88595,2.18669 -0.88595,3.78233 0,1.53474 0.30161,2.81659 0.90455,3.84584 0.60902,1.02925 1.46412,1.54423 2.56646,1.54423 1.2485,0 2.19827,-0.47324 2.84992,-1.41722 0.65775,-0.94398 0.98663,-2.26758 0.98663,-3.97285 0,-3.44707 -1.27865,-5.17166 -3.83655,-5.17166 z m -12.68057,0.14713 c -0.1827,0 -0.54207,0.0305 -1.07801,0.0914 l 0,4.34766 c 0.43849,0.0609 0.86522,0.0914 1.27936,0.0914 1.09624,0 1.8936,-0.17647 2.393,-0.52971 0.4994,-0.35323 0.74965,-0.98372 0.74965,-1.89117 0,-0.74909 -0.26792,-1.28813 -0.80386,-1.61701 -0.53594,-0.32887 -1.383,-0.49255 -2.54014,-0.49255 z m -117.96015,1.55817 59.96593,0 1.21895,10.89938 c 0.0696,0.62681 -0.13971,1.25341 -0.55758,1.74092 -0.41788,0.45269 -1.04441,0.73262 -1.67124,0.73262 l -57.9462,0 c -0.62681,0 -1.25334,-0.27993 -1.67122,-0.73262 -0.41788,-0.48751 -0.62724,-1.11411 -0.55759,-1.74092 z m 153.6259,0.30513 c 0.3776,0 0.70007,0.13473 0.96805,0.4027 0.26797,0.26797 0.40115,0.59045 0.40115,0.96804 0,0.3776 -0.13318,0.70328 -0.40115,0.97734 -0.26798,0.26797 -0.59045,0.40115 -0.96805,0.40115 -0.37759,0 -0.70162,-0.13318 -0.96959,-0.40115 -0.26797,-0.27406 -0.40115,-0.59974 -0.40115,-0.97734 0,-0.37759 0.13318,-0.70007 0.40115,-0.96804 0.26797,-0.26797 0.592,-0.4027 0.96959,-0.4027 z m 0,7.39893 c 0.3776,0 0.70007,0.13473 0.96805,0.4027 0.26797,0.26797 0.40115,0.59046 0.40115,0.96805 0,0.37759 -0.13318,0.70328 -0.40115,0.97734 -0.26798,0.26797 -0.59045,0.4027 -0.96805,0.4027 -0.37759,0 -0.70162,-0.13473 -0.96959,-0.4027 -0.26797,-0.27406 -0.40115,-0.59975 -0.40115,-0.97734 0,-0.37759 0.13318,-0.70008 0.40115,-0.96805 0.26797,-0.26797 0.592,-0.4027 0.96959,-0.4027 z"
       id="rect4263"
       inkscape:connector-curvature="0"
       sodipodi:nodetypes="ccccccsssssssssssssscsssccssscsccccsssscscscsscscscsccsccssscsccscscsccccccccccccccccccccccccccccccccccccsccsssscssscsssccscsssscscscscsssccccccccccscccccccccccccccccccccccccssscscsssccscsssccccsscccscscscscsscscscscs" />
  </g>
</svg>
