<?xml version="1.0" encoding="UTF-8" standalone="no"?>
<!-- Created with Inkscape (http://www.inkscape.org/) -->

<svg
   xmlns:dc="http://purl.org/dc/elements/1.1/"
   xmlns:cc="http://creativecommons.org/ns#"
   xmlns:rdf="http://www.w3.org/1999/02/22-rdf-syntax-ns#"
   xmlns:svg="http://www.w3.org/2000/svg"
   xmlns="http://www.w3.org/2000/svg"
   xmlns:sodipodi="http://sodipodi.sourceforge.net/DTD/sodipodi-0.dtd"
   xmlns:inkscape="http://www.inkscape.org/namespaces/inkscape"
   id="svg4171"
   version="1.1"
   inkscape:version="0.91 r13725"
   width="142"
   height="142"
   viewBox="0 0 142 142"
   sodipodi:docname="bookquote2.svg"
   inkscape:export-filename="/Users/mac/Documents/web-design/websites/isobel_bootstrap/img/bookexvector.png"
   inkscape:export-xdpi="90"
   inkscape:export-ydpi="90">
  <metadata
     id="metadata4177">
    <rdf:RDF>
      <cc:Work
         rdf:about="">
        <dc:format>image/svg+xml</dc:format>
        <dc:type
           rdf:resource="http://purl.org/dc/dcmitype/StillImage" />
        <dc:title />
      </cc:Work>
    </rdf:RDF>
  </metadata>
  <defs
     id="defs4175">
    <filter
       style="color-interpolation-filters:sRGB"
       inkscape:label="Drop Shadow"
       id="filter6258">
      <feFlood
         flood-opacity="0.498039"
         flood-color="rgb(0,0,0)"
         result="flood"
         id="feFlood6260" />
      <feComposite
         in="flood"
         in2="SourceGraphic"
         operator="in"
         result="composite1"
         id="feComposite6262" />
      <feGaussianBlur
         in="composite1"
         stdDeviation="3.4"
         result="blur"
         id="feGaussianBlur6264" />
      <feOffset
         dx="2.4"
         dy="2.4"
         result="offset"
         id="feOffset6266" />
      <feComposite
         in="SourceGraphic"
         in2="offset"
         operator="over"
         result="fbSourceGraphic"
         id="feComposite6268" />
      <feColorMatrix
         result="fbSourceGraphicAlpha"
         in="fbSourceGraphic"
         values="0 0 0 -1 0 0 0 0 -1 0 0 0 0 -1 0 0 0 0 1 0"
         id="feColorMatrix6270" />
      <feFlood
         id="feFlood6272"
         flood-opacity="0.498039"
         flood-color="rgb(0,0,0)"
         result="flood"
         in="fbSourceGraphic" />
      <feComposite
         id="feComposite6274"
         in2="fbSourceGraphic"
         in="flood"
         operator="in"
         result="composite1" />
      <feGaussianBlur
         id="feGaussianBlur6276"
         in="composite1"
         stdDeviation="3.4"
         result="blur" />
      <feOffset
         id="feOffset6278"
         dx="2.4"
         dy="2.4"
         result="offset" />
      <feComposite
         id="feComposite6280"
         in2="offset"
         in="fbSourceGraphic"
         operator="over"
         result="composite2" />
    </filter>
    <filter
       style="color-interpolation-filters:sRGB"
       inkscape:label="Drop Shadow"
       id="filter8504">
      <feFlood
         flood-opacity="0.498039"
         flood-color="rgb(161,161,161)"
         result="flood"
         id="feFlood8506" />
      <feComposite
         in="flood"
         in2="SourceGraphic"
         operator="in"
         result="composite1"
         id="feComposite8508" />
      <feGaussianBlur
         in="composite1"
         stdDeviation="0.4"
         result="blur"
         id="feGaussianBlur8510" />
      <feOffset
         dx="1.8"
         dy="2.4"
         result="offset"
         id="feOffset8512" />
      <feComposite
         in="SourceGraphic"
         in2="offset"
         operator="over"
         result="composite2"
         id="feComposite8514" />
    </filter>
  </defs>
  <sodipodi:namedview
     pagecolor="#ffffff"
     bordercolor="#666666"
     borderopacity="1"
     objecttolerance="10"
     gridtolerance="10"
     guidetolerance="10"
     inkscape:pageopacity="0"
     inkscape:pageshadow="2"
     inkscape:window-width="1280"
     inkscape:window-height="756"
     id="namedview4173"
     showgrid="false"
     inkscape:zoom="1.6519218"
     inkscape:cx="141.99522"
     inkscape:cy="24.602854"
     inkscape:window-x="113"
     inkscape:window-y="18"
     inkscape:window-maximized="0"
     inkscape:current-layer="svg4171" />
  <g
     transform="matrix(0.37960468,-0.1754649,0.1754649,0.37960468,-33.341979,60.561359)"
     id="g8106">
    <path
       inkscape:connector-curvature="0"
       id="path4187-8"
       d="M 34.90444,168.70363 C 84.756087,93.188242 105.51062,78.392042 177.45602,67.076674 c 57.79222,-9.089399 99.28304,-7.985793 126.14283,3.35525 17.76286,7.50005 22.86941,7.179443 52.05867,-3.268225 17.80017,-6.371147 40.20402,-13.324144 49.78638,-15.451047 15.18734,-3.370989 17.18765,-2.949972 15.59195,3.281804 -1.00678,3.931904 -8.07092,7.084347 -15.69803,7.005472 -7.62714,-0.07891 -28.26784,5.002552 -45.8682,11.292122 -23.56596,8.421411 -32.74426,14.33958 -34.82187,22.453285 C 318.10748,121.28738 237.38899,192.03478 183.65785,219.31891 144.1229,239.39434 120.15079,240.59027 60.111433,225.4824 30.720582,218.08683 7.2438372,211.04415 7.9408163,209.83218 8.6378348,208.62023 20.771407,190.11237 34.90444,168.70363 Z"
       style="fill:#434343;fill-opacity:1" />
    <path
       inkscape:connector-curvature="0"
       id="path4189-6"
       d="M 45.420676,165.78744 C 89.257621,95.314594 119.04766,78.171112 215.81282,67.730896 c 43.78144,-4.72365 106.33622,6.469418 95.31056,17.054166 -2.11773,2.033079 -7.60513,1.344817 -12.19423,-1.529448 -9.06974,-5.680664 -14.16556,1.73275 -5.38792,7.838337 8.86708,6.167749 -21.40802,7.751107 -32.29651,1.689036 -6.99813,-3.896112 -9.40923,-3.631268 -8.00718,0.879565 1.10337,3.549931 4.3095,5.738454 7.12473,4.863451 2.81523,-0.875014 4.65468,0.209206 4.08766,2.409387 -0.56703,2.20021 -9.00272,6.22882 -18.746,8.95249 -16.14946,4.51452 -24.53376,8.05768 -67.2839,28.43379 -37.75598,17.99569 -36.84242,17.85541 -55.13986,8.46749 -10.74977,-5.51539 -19.72876,-7.70084 -23.20641,-5.64838 -3.586231,2.11654 1.95811,5.31425 15.07536,8.69473 l 20.74774,5.34694 -14.11635,8.9367 c -11.04333,6.99122 -17.72784,7.61664 -30.706167,2.87295 -9.124397,-3.33504 -12.02615,-3.89992 -6.448294,-1.25525 14.304455,6.78231 11.916678,9.8598 -17.352534,22.36499 -14.196386,6.06536 -29.652227,13.04591 -34.346316,15.51231 -7.190509,3.77811 -8.11595,3.14123 -5.875697,-4.0433 1.462447,-4.6902 9.728641,-19.89276 18.369171,-33.78345 z M 162.03804,130.09009 c 6.19236,0.38596 2.7324,-1.5415 -7.68882,-4.28335 -10.42121,-2.74179 -15.48772,-3.05763 -11.25886,-0.70178 4.22886,2.3558 12.75531,4.5991 18.94768,4.98509 z m 48.31803,-22.51526 c 6.87709,0.29831 5.99176,-1.20178 -3.41372,-5.78412 -8.20049,-3.995257 -11.48961,-4.137936 -9.28512,-0.40277 1.87754,3.18129 7.59201,5.96536 12.69884,6.18689 z m 31.68201,-20.986628 c 6.91457,-1.959088 4.5529,-3.693242 -9.94457,-7.302195 -16.62904,-4.139641 -17.76591,-3.817524 -9.06807,2.569222 6.26935,4.603521 13.29589,6.352691 19.01265,4.733012 z M 62.407609,200.54996 c 22.883195,-9.65814 29.566498,-9.66541 22.703792,-0.0247 -2.707549,3.80359 -2.403027,5.91236 0.713897,4.94359 2.989534,-0.92924 6.326629,-5.14714 7.415731,-9.37317 1.906388,-7.39739 40.830981,-31.26729 47.982151,-29.42439 1.91907,0.49443 0.91353,6.49486 -2.23447,13.33394 -3.14804,6.8391 -4.05145,11.54433 -2.00758,10.45613 2.04389,-1.08816 5.72508,-7.75309 8.18041,-14.81081 3.04562,-8.75433 11.75125,-16.00921 27.39464,-22.82941 12.61172,-5.49842 29.51539,-13.46863 37.56374,-17.71158 8.04834,-4.24291 17.03782,-6.00436 19.97662,-3.91423 2.93879,2.09012 6.08065,1.21647 6.98189,-1.94137 0.90123,-3.15788 8.17771,-8.33578 16.16992,-11.50641 12.01427,-4.76631 14.95722,-4.44589 16.9903,1.84954 1.84879,5.72478 3.12706,5.09658 5.15114,-2.53139 1.48058,-5.58019 6.40216,-10.57125 10.93665,-11.09126 12.39158,-1.4211 12.60448,-0.87083 4.2399,10.95678 -4.46786,6.3175 -5.59949,10.27596 -2.67828,9.36798 2.78241,-0.8648 8.09209,-7.56693 11.79932,-14.89358 6.61641,-13.076251 18.17877,-21.471813 15.55628,-11.29565 -1.88546,7.31602 -36.97868,46.98283 -48.46391,54.78002 -7.48735,5.08306 -10.15929,4.94659 -12.23887,-0.62521 -1.76088,-4.71785 -2.5899,-3.52207 -2.45191,3.53655 0.16274,8.32418 -9.36698,16.51333 -43.42846,37.3192 -48.15302,29.41345 -70.14917,36.08823 -102.98998,31.25253 -12.061107,-1.77594 -26.378831,-3.62769 -31.817159,-4.11499 -5.438325,-0.48738 -14.781478,-3.65359 -20.762498,-7.03615 l -10.874622,-6.15017 20.191366,-8.52199 z m 63.132901,7.6027 c 2.6087,0.67227 5.67298,-2.52126 6.80957,-7.0968 1.76586,-7.10953 1.13135,-7.45693 -4.36486,-2.38938 -8.09155,7.46041 -8.22941,7.99534 -2.44471,9.48618 z m 55.52246,-38.80125 c 3.02421,-0.93994 6.49096,-6.44026 7.70391,-12.22286 2.05297,-9.78741 1.73182,-9.76218 -4.64808,0.36438 -3.76936,5.98349 -7.23611,11.48381 -7.7039,12.22289 -0.46767,0.73916 1.62382,0.57479 4.64807,-0.36438 z m -8.26935,24.31852 c 1.98226,-1.16992 3.20504,-5.21738 2.71736,-8.99435 -0.53901,-4.17394 -1.95256,-3.33968 -3.60412,2.12706 -1.4946,4.94689 -1.09544,8.03724 0.8868,6.86737 z m 44.96112,-17.39162 c 1.02525,0.26422 2.99666,-3.91436 4.38092,-9.28571 1.38427,-5.37135 0.15057,-9.03064 -2.74155,-8.1317 -4.74747,1.47562 -6.1388,16.25784 -1.63937,17.41741 z m 44.05397,-29.11155 c 2.17393,0.56024 4.77767,-2.18298 5.78611,-6.09599 1.00844,-3.91305 0.0549,-7.57303 -2.11904,-8.13327 -2.17391,-0.56024 -4.77766,2.18298 -5.7861,6.09599 -1.00844,3.91305 -0.0549,7.57303 2.11903,8.13327 z"
       style="fill:#5d5d5d;fill-opacity:1" />
  </g>
  <g
     id="g5398"
     transform="matrix(0.37960468,-0.1754649,0.1754649,0.37960468,-54.226745,24.240027)">
    <path
       style="fill:#434343;fill-opacity:1"
       d="M 34.90444,168.70363 C 84.756087,93.188242 105.51062,78.392042 177.45602,67.076674 c 57.79222,-9.089399 99.28304,-7.985793 126.14283,3.35525 17.76286,7.50005 22.86941,7.179443 52.05867,-3.268225 17.80017,-6.371147 40.20402,-13.324144 49.78638,-15.451047 15.18734,-3.370989 17.18765,-2.949972 15.59195,3.281804 -1.00678,3.931904 -8.07092,7.084347 -15.69803,7.005472 -7.62714,-0.07891 -28.26784,5.002552 -45.8682,11.292122 -23.56596,8.421411 -32.74426,14.33958 -34.82187,22.453285 C 318.10748,121.28738 237.38899,192.03478 183.65785,219.31891 144.1229,239.39434 120.15079,240.59027 60.111433,225.4824 30.720582,218.08683 7.2438372,211.04415 7.9408163,209.83218 8.6378348,208.62023 20.771407,190.11237 34.90444,168.70363 Z"
       id="path5400"
       inkscape:connector-curvature="0" />
    <path
       style="fill:#5d5d5d;fill-opacity:1"
       d="M 45.420676,165.78744 C 89.257621,95.314594 119.04766,78.171112 215.81282,67.730896 c 43.78144,-4.72365 106.33622,6.469418 95.31056,17.054166 -2.11773,2.033079 -7.60513,1.344817 -12.19423,-1.529448 -9.06974,-5.680664 -14.16556,1.73275 -5.38792,7.838337 8.86708,6.167749 -21.40802,7.751107 -32.29651,1.689036 -6.99813,-3.896112 -9.40923,-3.631268 -8.00718,0.879565 1.10337,3.549931 4.3095,5.738454 7.12473,4.863451 2.81523,-0.875014 4.65468,0.209206 4.08766,2.409387 -0.56703,2.20021 -9.00272,6.22882 -18.746,8.95249 -16.14946,4.51452 -24.53376,8.05768 -67.2839,28.43379 -37.75598,17.99569 -36.84242,17.85541 -55.13986,8.46749 -10.74977,-5.51539 -19.72876,-7.70084 -23.20641,-5.64838 -3.586231,2.11654 1.95811,5.31425 15.07536,8.69473 l 20.74774,5.34694 -14.11635,8.9367 c -11.04333,6.99122 -17.72784,7.61664 -30.706167,2.87295 -9.124397,-3.33504 -12.02615,-3.89992 -6.448294,-1.25525 14.304455,6.78231 11.916678,9.8598 -17.352534,22.36499 -14.196386,6.06536 -29.652227,13.04591 -34.346316,15.51231 -7.190509,3.77811 -8.11595,3.14123 -5.875697,-4.0433 1.462447,-4.6902 9.728641,-19.89276 18.369171,-33.78345 z M 162.03804,130.09009 c 6.19236,0.38596 2.7324,-1.5415 -7.68882,-4.28335 -10.42121,-2.74179 -15.48772,-3.05763 -11.25886,-0.70178 4.22886,2.3558 12.75531,4.5991 18.94768,4.98509 z m 48.31803,-22.51526 c 6.87709,0.29831 5.99176,-1.20178 -3.41372,-5.78412 -8.20049,-3.995257 -11.48961,-4.137936 -9.28512,-0.40277 1.87754,3.18129 7.59201,5.96536 12.69884,6.18689 z m 31.68201,-20.986628 c 6.91457,-1.959088 4.5529,-3.693242 -9.94457,-7.302195 -16.62904,-4.139641 -17.76591,-3.817524 -9.06807,2.569222 6.26935,4.603521 13.29589,6.352691 19.01265,4.733012 z M 62.407609,200.54996 c 22.883195,-9.65814 29.566498,-9.66541 22.703792,-0.0247 -2.707549,3.80359 -2.403027,5.91236 0.713897,4.94359 2.989534,-0.92924 6.326629,-5.14714 7.415731,-9.37317 1.906388,-7.39739 40.830981,-31.26729 47.982151,-29.42439 1.91907,0.49443 0.91353,6.49486 -2.23447,13.33394 -3.14804,6.8391 -4.05145,11.54433 -2.00758,10.45613 2.04389,-1.08816 5.72508,-7.75309 8.18041,-14.81081 3.04562,-8.75433 11.75125,-16.00921 27.39464,-22.82941 12.61172,-5.49842 29.51539,-13.46863 37.56374,-17.71158 8.04834,-4.24291 17.03782,-6.00436 19.97662,-3.91423 2.93879,2.09012 6.08065,1.21647 6.98189,-1.94137 0.90123,-3.15788 8.17771,-8.33578 16.16992,-11.50641 12.01427,-4.76631 14.95722,-4.44589 16.9903,1.84954 1.84879,5.72478 3.12706,5.09658 5.15114,-2.53139 1.48058,-5.58019 6.40216,-10.57125 10.93665,-11.09126 12.39158,-1.4211 12.60448,-0.87083 4.2399,10.95678 -4.46786,6.3175 -5.59949,10.27596 -2.67828,9.36798 2.78241,-0.8648 8.09209,-7.56693 11.79932,-14.89358 6.61641,-13.076251 18.17877,-21.471813 15.55628,-11.29565 -1.88546,7.31602 -36.97868,46.98283 -48.46391,54.78002 -7.48735,5.08306 -10.15929,4.94659 -12.23887,-0.62521 -1.76088,-4.71785 -2.5899,-3.52207 -2.45191,3.53655 0.16274,8.32418 -9.36698,16.51333 -43.42846,37.3192 -48.15302,29.41345 -70.14917,36.08823 -102.98998,31.25253 -12.061107,-1.77594 -26.378831,-3.62769 -31.817159,-4.11499 -5.438325,-0.48738 -14.781478,-3.65359 -20.762498,-7.03615 l -10.874622,-6.15017 20.191366,-8.52199 z m 63.132901,7.6027 c 2.6087,0.67227 5.67298,-2.52126 6.80957,-7.0968 1.76586,-7.10953 1.13135,-7.45693 -4.36486,-2.38938 -8.09155,7.46041 -8.22941,7.99534 -2.44471,9.48618 z m 55.52246,-38.80125 c 3.02421,-0.93994 6.49096,-6.44026 7.70391,-12.22286 2.05297,-9.78741 1.73182,-9.76218 -4.64808,0.36438 -3.76936,5.98349 -7.23611,11.48381 -7.7039,12.22289 -0.46767,0.73916 1.62382,0.57479 4.64807,-0.36438 z m -8.26935,24.31852 c 1.98226,-1.16992 3.20504,-5.21738 2.71736,-8.99435 -0.53901,-4.17394 -1.95256,-3.33968 -3.60412,2.12706 -1.4946,4.94689 -1.09544,8.03724 0.8868,6.86737 z m 44.96112,-17.39162 c 1.02525,0.26422 2.99666,-3.91436 4.38092,-9.28571 1.38427,-5.37135 0.15057,-9.03064 -2.74155,-8.1317 -4.74747,1.47562 -6.1388,16.25784 -1.63937,17.41741 z m 44.05397,-29.11155 c 2.17393,0.56024 4.77767,-2.18298 5.78611,-6.09599 1.00844,-3.91305 0.0549,-7.57303 -2.11904,-8.13327 -2.17391,-0.56024 -4.77766,2.18298 -5.7861,6.09599 -1.00844,3.91305 -0.0549,7.57303 2.11903,8.13327 z"
       id="path5402"
       inkscape:connector-curvature="0" />
  </g>
  <g
     transform="matrix(0.37960468,-0.1754649,0.1754649,0.37960468,24.469474,-16.016116)"
     id="g5404">
    <path
       inkscape:connector-curvature="0"
       id="path5406"
       d="M 34.90444,168.70363 C 84.756087,93.188242 105.51062,78.392042 177.45602,67.076674 c 57.79222,-9.089399 99.28304,-7.985793 126.14283,3.35525 17.76286,7.50005 22.86941,7.179443 52.05867,-3.268225 17.80017,-6.371147 40.20402,-13.324144 49.78638,-15.451047 15.18734,-3.370989 17.18765,-2.949972 15.59195,3.281804 -1.00678,3.931904 -8.07092,7.084347 -15.69803,7.005472 -7.62714,-0.07891 -28.26784,5.002552 -45.8682,11.292122 -23.56596,8.421411 -32.74426,14.33958 -34.82187,22.453285 C 318.10748,121.28738 237.38899,192.03478 183.65785,219.31891 144.1229,239.39434 120.15079,240.59027 60.111433,225.4824 30.720582,218.08683 7.2438372,211.04415 7.9408163,209.83218 8.6378348,208.62023 20.771407,190.11237 34.90444,168.70363 Z"
       style="fill:#434343;fill-opacity:1" />
    <path
       inkscape:connector-curvature="0"
       id="path5408"
       d="M 45.420676,165.78744 C 89.257621,95.314594 119.04766,78.171112 215.81282,67.730896 c 43.78144,-4.72365 106.33622,6.469418 95.31056,17.054166 -2.11773,2.033079 -7.60513,1.344817 -12.19423,-1.529448 -9.06974,-5.680664 -14.16556,1.73275 -5.38792,7.838337 8.86708,6.167749 -21.40802,7.751107 -32.29651,1.689036 -6.99813,-3.896112 -9.40923,-3.631268 -8.00718,0.879565 1.10337,3.549931 4.3095,5.738454 7.12473,4.863451 2.81523,-0.875014 4.65468,0.209206 4.08766,2.409387 -0.56703,2.20021 -9.00272,6.22882 -18.746,8.95249 -16.14946,4.51452 -24.53376,8.05768 -67.2839,28.43379 -37.75598,17.99569 -36.84242,17.85541 -55.13986,8.46749 -10.74977,-5.51539 -19.72876,-7.70084 -23.20641,-5.64838 -3.586231,2.11654 1.95811,5.31425 15.07536,8.69473 l 20.74774,5.34694 -14.11635,8.9367 c -11.04333,6.99122 -17.72784,7.61664 -30.706167,2.87295 -9.124397,-3.33504 -12.02615,-3.89992 -6.448294,-1.25525 14.304455,6.78231 11.916678,9.8598 -17.352534,22.36499 -14.196386,6.06536 -29.652227,13.04591 -34.346316,15.51231 -7.190509,3.77811 -8.11595,3.14123 -5.875697,-4.0433 1.462447,-4.6902 9.728641,-19.89276 18.369171,-33.78345 z M 162.03804,130.09009 c 6.19236,0.38596 2.7324,-1.5415 -7.68882,-4.28335 -10.42121,-2.74179 -15.48772,-3.05763 -11.25886,-0.70178 4.22886,2.3558 12.75531,4.5991 18.94768,4.98509 z m 48.31803,-22.51526 c 6.87709,0.29831 5.99176,-1.20178 -3.41372,-5.78412 -8.20049,-3.995257 -11.48961,-4.137936 -9.28512,-0.40277 1.87754,3.18129 7.59201,5.96536 12.69884,6.18689 z m 31.68201,-20.986628 c 6.91457,-1.959088 4.5529,-3.693242 -9.94457,-7.302195 -16.62904,-4.139641 -17.76591,-3.817524 -9.06807,2.569222 6.26935,4.603521 13.29589,6.352691 19.01265,4.733012 z M 62.407609,200.54996 c 22.883195,-9.65814 29.566498,-9.66541 22.703792,-0.0247 -2.707549,3.80359 -2.403027,5.91236 0.713897,4.94359 2.989534,-0.92924 6.326629,-5.14714 7.415731,-9.37317 1.906388,-7.39739 40.830981,-31.26729 47.982151,-29.42439 1.91907,0.49443 0.91353,6.49486 -2.23447,13.33394 -3.14804,6.8391 -4.05145,11.54433 -2.00758,10.45613 2.04389,-1.08816 5.72508,-7.75309 8.18041,-14.81081 3.04562,-8.75433 11.75125,-16.00921 27.39464,-22.82941 12.61172,-5.49842 29.51539,-13.46863 37.56374,-17.71158 8.04834,-4.24291 17.03782,-6.00436 19.97662,-3.91423 2.93879,2.09012 6.08065,1.21647 6.98189,-1.94137 0.90123,-3.15788 8.17771,-8.33578 16.16992,-11.50641 12.01427,-4.76631 14.95722,-4.44589 16.9903,1.84954 1.84879,5.72478 3.12706,5.09658 5.15114,-2.53139 1.48058,-5.58019 6.40216,-10.57125 10.93665,-11.09126 12.39158,-1.4211 12.60448,-0.87083 4.2399,10.95678 -4.46786,6.3175 -5.59949,10.27596 -2.67828,9.36798 2.78241,-0.8648 8.09209,-7.56693 11.79932,-14.89358 6.61641,-13.076251 18.17877,-21.471813 15.55628,-11.29565 -1.88546,7.31602 -36.97868,46.98283 -48.46391,54.78002 -7.48735,5.08306 -10.15929,4.94659 -12.23887,-0.62521 -1.76088,-4.71785 -2.5899,-3.52207 -2.45191,3.53655 0.16274,8.32418 -9.36698,16.51333 -43.42846,37.3192 -48.15302,29.41345 -70.14917,36.08823 -102.98998,31.25253 -12.061107,-1.77594 -26.378831,-3.62769 -31.817159,-4.11499 -5.438325,-0.48738 -14.781478,-3.65359 -20.762498,-7.03615 l -10.874622,-6.15017 20.191366,-8.52199 z m 63.132901,7.6027 c 2.6087,0.67227 5.67298,-2.52126 6.80957,-7.0968 1.76586,-7.10953 1.13135,-7.45693 -4.36486,-2.38938 -8.09155,7.46041 -8.22941,7.99534 -2.44471,9.48618 z m 55.52246,-38.80125 c 3.02421,-0.93994 6.49096,-6.44026 7.70391,-12.22286 2.05297,-9.78741 1.73182,-9.76218 -4.64808,0.36438 -3.76936,5.98349 -7.23611,11.48381 -7.7039,12.22289 -0.46767,0.73916 1.62382,0.57479 4.64807,-0.36438 z m -8.26935,24.31852 c 1.98226,-1.16992 3.20504,-5.21738 2.71736,-8.99435 -0.53901,-4.17394 -1.95256,-3.33968 -3.60412,2.12706 -1.4946,4.94689 -1.09544,8.03724 0.8868,6.86737 z m 44.96112,-17.39162 c 1.02525,0.26422 2.99666,-3.91436 4.38092,-9.28571 1.38427,-5.37135 0.15057,-9.03064 -2.74155,-8.1317 -4.74747,1.47562 -6.1388,16.25784 -1.63937,17.41741 z m 44.05397,-29.11155 c 2.17393,0.56024 4.77767,-2.18298 5.78611,-6.09599 1.00844,-3.91305 0.0549,-7.57303 -2.11904,-8.13327 -2.17391,-0.56024 -4.77766,2.18298 -5.7861,6.09599 -1.00844,3.91305 -0.0549,7.57303 2.11903,8.13327 z"
       style="fill:#5d5d5d;fill-opacity:1" />
  </g>
  <g
     id="g5410"
     transform="matrix(0.37960468,-0.1754649,0.1754649,0.37960468,29.614996,39.979271)">
    <path
       style="fill:#434343;fill-opacity:1"
       d="M 34.90444,168.70363 C 84.756087,93.188242 105.51062,78.392042 177.45602,67.076674 c 57.79222,-9.089399 99.28304,-7.985793 126.14283,3.35525 17.76286,7.50005 22.86941,7.179443 52.05867,-3.268225 17.80017,-6.371147 40.20402,-13.324144 49.78638,-15.451047 15.18734,-3.370989 17.18765,-2.949972 15.59195,3.281804 -1.00678,3.931904 -8.07092,7.084347 -15.69803,7.005472 -7.62714,-0.07891 -28.26784,5.002552 -45.8682,11.292122 -23.56596,8.421411 -32.74426,14.33958 -34.82187,22.453285 C 318.10748,121.28738 237.38899,192.03478 183.65785,219.31891 144.1229,239.39434 120.15079,240.59027 60.111433,225.4824 30.720582,218.08683 7.2438372,211.04415 7.9408163,209.83218 8.6378348,208.62023 20.771407,190.11237 34.90444,168.70363 Z"
       id="path5412"
       inkscape:connector-curvature="0" />
    <path
       style="fill:#5d5d5d;fill-opacity:1"
       d="M 45.420676,165.78744 C 89.257621,95.314594 119.04766,78.171112 215.81282,67.730896 c 43.78144,-4.72365 106.33622,6.469418 95.31056,17.054166 -2.11773,2.033079 -7.60513,1.344817 -12.19423,-1.529448 -9.06974,-5.680664 -14.16556,1.73275 -5.38792,7.838337 8.86708,6.167749 -21.40802,7.751107 -32.29651,1.689036 -6.99813,-3.896112 -9.40923,-3.631268 -8.00718,0.879565 1.10337,3.549931 4.3095,5.738454 7.12473,4.863451 2.81523,-0.875014 4.65468,0.209206 4.08766,2.409387 -0.56703,2.20021 -9.00272,6.22882 -18.746,8.95249 -16.14946,4.51452 -24.53376,8.05768 -67.2839,28.43379 -37.75598,17.99569 -36.84242,17.85541 -55.13986,8.46749 -10.74977,-5.51539 -19.72876,-7.70084 -23.20641,-5.64838 -3.586231,2.11654 1.95811,5.31425 15.07536,8.69473 l 20.74774,5.34694 -14.11635,8.9367 c -11.04333,6.99122 -17.72784,7.61664 -30.706167,2.87295 -9.124397,-3.33504 -12.02615,-3.89992 -6.448294,-1.25525 14.304455,6.78231 11.916678,9.8598 -17.352534,22.36499 -14.196386,6.06536 -29.652227,13.04591 -34.346316,15.51231 -7.190509,3.77811 -8.11595,3.14123 -5.875697,-4.0433 1.462447,-4.6902 9.728641,-19.89276 18.369171,-33.78345 z M 162.03804,130.09009 c 6.19236,0.38596 2.7324,-1.5415 -7.68882,-4.28335 -10.42121,-2.74179 -15.48772,-3.05763 -11.25886,-0.70178 4.22886,2.3558 12.75531,4.5991 18.94768,4.98509 z m 48.31803,-22.51526 c 6.87709,0.29831 5.99176,-1.20178 -3.41372,-5.78412 -8.20049,-3.995257 -11.48961,-4.137936 -9.28512,-0.40277 1.87754,3.18129 7.59201,5.96536 12.69884,6.18689 z m 31.68201,-20.986628 c 6.91457,-1.959088 4.5529,-3.693242 -9.94457,-7.302195 -16.62904,-4.139641 -17.76591,-3.817524 -9.06807,2.569222 6.26935,4.603521 13.29589,6.352691 19.01265,4.733012 z M 62.407609,200.54996 c 22.883195,-9.65814 29.566498,-9.66541 22.703792,-0.0247 -2.707549,3.80359 -2.403027,5.91236 0.713897,4.94359 2.989534,-0.92924 6.326629,-5.14714 7.415731,-9.37317 1.906388,-7.39739 40.830981,-31.26729 47.982151,-29.42439 1.91907,0.49443 0.91353,6.49486 -2.23447,13.33394 -3.14804,6.8391 -4.05145,11.54433 -2.00758,10.45613 2.04389,-1.08816 5.72508,-7.75309 8.18041,-14.81081 3.04562,-8.75433 11.75125,-16.00921 27.39464,-22.82941 12.61172,-5.49842 29.51539,-13.46863 37.56374,-17.71158 8.04834,-4.24291 17.03782,-6.00436 19.97662,-3.91423 2.93879,2.09012 6.08065,1.21647 6.98189,-1.94137 0.90123,-3.15788 8.17771,-8.33578 16.16992,-11.50641 12.01427,-4.76631 14.95722,-4.44589 16.9903,1.84954 1.84879,5.72478 3.12706,5.09658 5.15114,-2.53139 1.48058,-5.58019 6.40216,-10.57125 10.93665,-11.09126 12.39158,-1.4211 12.60448,-0.87083 4.2399,10.95678 -4.46786,6.3175 -5.59949,10.27596 -2.67828,9.36798 2.78241,-0.8648 8.09209,-7.56693 11.79932,-14.89358 6.61641,-13.076251 18.17877,-21.471813 15.55628,-11.29565 -1.88546,7.31602 -36.97868,46.98283 -48.46391,54.78002 -7.48735,5.08306 -10.15929,4.94659 -12.23887,-0.62521 -1.76088,-4.71785 -2.5899,-3.52207 -2.45191,3.53655 0.16274,8.32418 -9.36698,16.51333 -43.42846,37.3192 -48.15302,29.41345 -70.14917,36.08823 -102.98998,31.25253 -12.061107,-1.77594 -26.378831,-3.62769 -31.817159,-4.11499 -5.438325,-0.48738 -14.781478,-3.65359 -20.762498,-7.03615 l -10.874622,-6.15017 20.191366,-8.52199 z m 63.132901,7.6027 c 2.6087,0.67227 5.67298,-2.52126 6.80957,-7.0968 1.76586,-7.10953 1.13135,-7.45693 -4.36486,-2.38938 -8.09155,7.46041 -8.22941,7.99534 -2.44471,9.48618 z m 55.52246,-38.80125 c 3.02421,-0.93994 6.49096,-6.44026 7.70391,-12.22286 2.05297,-9.78741 1.73182,-9.76218 -4.64808,0.36438 -3.76936,5.98349 -7.23611,11.48381 -7.7039,12.22289 -0.46767,0.73916 1.62382,0.57479 4.64807,-0.36438 z m -8.26935,24.31852 c 1.98226,-1.16992 3.20504,-5.21738 2.71736,-8.99435 -0.53901,-4.17394 -1.95256,-3.33968 -3.60412,2.12706 -1.4946,4.94689 -1.09544,8.03724 0.8868,6.86737 z m 44.96112,-17.39162 c 1.02525,0.26422 2.99666,-3.91436 4.38092,-9.28571 1.38427,-5.37135 0.15057,-9.03064 -2.74155,-8.1317 -4.74747,1.47562 -6.1388,16.25784 -1.63937,17.41741 z m 44.05397,-29.11155 c 2.17393,0.56024 4.77767,-2.18298 5.78611,-6.09599 1.00844,-3.91305 0.0549,-7.57303 -2.11904,-8.13327 -2.17391,-0.56024 -4.77766,2.18298 -5.7861,6.09599 -1.00844,3.91305 -0.0549,7.57303 2.11903,8.13327 z"
       id="path5414"
       inkscape:connector-curvature="0" />
  </g>
  <g
     transform="matrix(0.37960468,-0.1754649,0.1754649,0.37960468,50.499762,75.695247)"
     id="g5416">
    <path
       inkscape:connector-curvature="0"
       id="path5418"
       d="M 34.90444,168.70363 C 84.756087,93.188242 105.51062,78.392042 177.45602,67.076674 c 57.79222,-9.089399 99.28304,-7.985793 126.14283,3.35525 17.76286,7.50005 22.86941,7.179443 52.05867,-3.268225 17.80017,-6.371147 40.20402,-13.324144 49.78638,-15.451047 15.18734,-3.370989 17.18765,-2.949972 15.59195,3.281804 -1.00678,3.931904 -8.07092,7.084347 -15.69803,7.005472 -7.62714,-0.07891 -28.26784,5.002552 -45.8682,11.292122 -23.56596,8.421411 -32.74426,14.33958 -34.82187,22.453285 C 318.10748,121.28738 237.38899,192.03478 183.65785,219.31891 144.1229,239.39434 120.15079,240.59027 60.111433,225.4824 30.720582,218.08683 7.2438372,211.04415 7.9408163,209.83218 8.6378348,208.62023 20.771407,190.11237 34.90444,168.70363 Z"
       style="fill:#434343;fill-opacity:1" />
    <path
       inkscape:connector-curvature="0"
       id="path5420"
       d="M 45.420676,165.78744 C 89.257621,95.314594 119.04766,78.171112 215.81282,67.730896 c 43.78144,-4.72365 106.33622,6.469418 95.31056,17.054166 -2.11773,2.033079 -7.60513,1.344817 -12.19423,-1.529448 -9.06974,-5.680664 -14.16556,1.73275 -5.38792,7.838337 8.86708,6.167749 -21.40802,7.751107 -32.29651,1.689036 -6.99813,-3.896112 -9.40923,-3.631268 -8.00718,0.879565 1.10337,3.549931 4.3095,5.738454 7.12473,4.863451 2.81523,-0.875014 4.65468,0.209206 4.08766,2.409387 -0.56703,2.20021 -9.00272,6.22882 -18.746,8.95249 -16.14946,4.51452 -24.53376,8.05768 -67.2839,28.43379 -37.75598,17.99569 -36.84242,17.85541 -55.13986,8.46749 -10.74977,-5.51539 -19.72876,-7.70084 -23.20641,-5.64838 -3.586231,2.11654 1.95811,5.31425 15.07536,8.69473 l 20.74774,5.34694 -14.11635,8.9367 c -11.04333,6.99122 -17.72784,7.61664 -30.706167,2.87295 -9.124397,-3.33504 -12.02615,-3.89992 -6.448294,-1.25525 14.304455,6.78231 11.916678,9.8598 -17.352534,22.36499 -14.196386,6.06536 -29.652227,13.04591 -34.346316,15.51231 -7.190509,3.77811 -8.11595,3.14123 -5.875697,-4.0433 1.462447,-4.6902 9.728641,-19.89276 18.369171,-33.78345 z M 162.03804,130.09009 c 6.19236,0.38596 2.7324,-1.5415 -7.68882,-4.28335 -10.42121,-2.74179 -15.48772,-3.05763 -11.25886,-0.70178 4.22886,2.3558 12.75531,4.5991 18.94768,4.98509 z m 48.31803,-22.51526 c 6.87709,0.29831 5.99176,-1.20178 -3.41372,-5.78412 -8.20049,-3.995257 -11.48961,-4.137936 -9.28512,-0.40277 1.87754,3.18129 7.59201,5.96536 12.69884,6.18689 z m 31.68201,-20.986628 c 6.91457,-1.959088 4.5529,-3.693242 -9.94457,-7.302195 -16.62904,-4.139641 -17.76591,-3.817524 -9.06807,2.569222 6.26935,4.603521 13.29589,6.352691 19.01265,4.733012 z M 62.407609,200.54996 c 22.883195,-9.65814 29.566498,-9.66541 22.703792,-0.0247 -2.707549,3.80359 -2.403027,5.91236 0.713897,4.94359 2.989534,-0.92924 6.326629,-5.14714 7.415731,-9.37317 1.906388,-7.39739 40.830981,-31.26729 47.982151,-29.42439 1.91907,0.49443 0.91353,6.49486 -2.23447,13.33394 -3.14804,6.8391 -4.05145,11.54433 -2.00758,10.45613 2.04389,-1.08816 5.72508,-7.75309 8.18041,-14.81081 3.04562,-8.75433 11.75125,-16.00921 27.39464,-22.82941 12.61172,-5.49842 29.51539,-13.46863 37.56374,-17.71158 8.04834,-4.24291 17.03782,-6.00436 19.97662,-3.91423 2.93879,2.09012 6.08065,1.21647 6.98189,-1.94137 0.90123,-3.15788 8.17771,-8.33578 16.16992,-11.50641 12.01427,-4.76631 14.95722,-4.44589 16.9903,1.84954 1.84879,5.72478 3.12706,5.09658 5.15114,-2.53139 1.48058,-5.58019 6.40216,-10.57125 10.93665,-11.09126 12.39158,-1.4211 12.60448,-0.87083 4.2399,10.95678 -4.46786,6.3175 -5.59949,10.27596 -2.67828,9.36798 2.78241,-0.8648 8.09209,-7.56693 11.79932,-14.89358 6.61641,-13.076251 18.17877,-21.471813 15.55628,-11.29565 -1.88546,7.31602 -36.97868,46.98283 -48.46391,54.78002 -7.48735,5.08306 -10.15929,4.94659 -12.23887,-0.62521 -1.76088,-4.71785 -2.5899,-3.52207 -2.45191,3.53655 0.16274,8.32418 -9.36698,16.51333 -43.42846,37.3192 -48.15302,29.41345 -70.14917,36.08823 -102.98998,31.25253 -12.061107,-1.77594 -26.378831,-3.62769 -31.817159,-4.11499 -5.438325,-0.48738 -14.781478,-3.65359 -20.762498,-7.03615 l -10.874622,-6.15017 20.191366,-8.52199 z m 63.132901,7.6027 c 2.6087,0.67227 5.67298,-2.52126 6.80957,-7.0968 1.76586,-7.10953 1.13135,-7.45693 -4.36486,-2.38938 -8.09155,7.46041 -8.22941,7.99534 -2.44471,9.48618 z m 55.52246,-38.80125 c 3.02421,-0.93994 6.49096,-6.44026 7.70391,-12.22286 2.05297,-9.78741 1.73182,-9.76218 -4.64808,0.36438 -3.76936,5.98349 -7.23611,11.48381 -7.7039,12.22289 -0.46767,0.73916 1.62382,0.57479 4.64807,-0.36438 z m -8.26935,24.31852 c 1.98226,-1.16992 3.20504,-5.21738 2.71736,-8.99435 -0.53901,-4.17394 -1.95256,-3.33968 -3.60412,2.12706 -1.4946,4.94689 -1.09544,8.03724 0.8868,6.86737 z m 44.96112,-17.39162 c 1.02525,0.26422 2.99666,-3.91436 4.38092,-9.28571 1.38427,-5.37135 0.15057,-9.03064 -2.74155,-8.1317 -4.74747,1.47562 -6.1388,16.25784 -1.63937,17.41741 z m 44.05397,-29.11155 c 2.17393,0.56024 4.77767,-2.18298 5.78611,-6.09599 1.00844,-3.91305 0.0549,-7.57303 -2.11904,-8.13327 -2.17391,-0.56024 -4.77766,2.18298 -5.7861,6.09599 -1.00844,3.91305 -0.0549,7.57303 2.11903,8.13327 z"
       style="fill:#5d5d5d;fill-opacity:1" />
  </g>
  <g
     id="g5422"
     transform="matrix(0.37960468,-0.1754649,0.1754649,0.37960468,0.86060838,83.262191)">
    <path
       style="fill:#434343;fill-opacity:1"
       d="M 34.90444,168.70363 C 84.756087,93.188242 105.51062,78.392042 177.45602,67.076674 c 57.79222,-9.089399 99.28304,-7.985793 126.14283,3.35525 17.76286,7.50005 22.86941,7.179443 52.05867,-3.268225 17.80017,-6.371147 40.20402,-13.324144 49.78638,-15.451047 15.18734,-3.370989 17.18765,-2.949972 15.59195,3.281804 -1.00678,3.931904 -8.07092,7.084347 -15.69803,7.005472 -7.62714,-0.07891 -28.26784,5.002552 -45.8682,11.292122 -23.56596,8.421411 -32.74426,14.33958 -34.82187,22.453285 C 318.10748,121.28738 237.38899,192.03478 183.65785,219.31891 144.1229,239.39434 120.15079,240.59027 60.111433,225.4824 30.720582,218.08683 7.2438372,211.04415 7.9408163,209.83218 8.6378348,208.62023 20.771407,190.11237 34.90444,168.70363 Z"
       id="path5424"
       inkscape:connector-curvature="0" />
    <path
       style="fill:#5d5d5d;fill-opacity:1"
       d="M 45.420676,165.78744 C 89.257621,95.314594 119.04766,78.171112 215.81282,67.730896 c 43.78144,-4.72365 106.33622,6.469418 95.31056,17.054166 -2.11773,2.033079 -7.60513,1.344817 -12.19423,-1.529448 -9.06974,-5.680664 -14.16556,1.73275 -5.38792,7.838337 8.86708,6.167749 -21.40802,7.751107 -32.29651,1.689036 -6.99813,-3.896112 -9.40923,-3.631268 -8.00718,0.879565 1.10337,3.549931 4.3095,5.738454 7.12473,4.863451 2.81523,-0.875014 4.65468,0.209206 4.08766,2.409387 -0.56703,2.20021 -9.00272,6.22882 -18.746,8.95249 -16.14946,4.51452 -24.53376,8.05768 -67.2839,28.43379 -37.75598,17.99569 -36.84242,17.85541 -55.13986,8.46749 -10.74977,-5.51539 -19.72876,-7.70084 -23.20641,-5.64838 -3.586231,2.11654 1.95811,5.31425 15.07536,8.69473 l 20.74774,5.34694 -14.11635,8.9367 c -11.04333,6.99122 -17.72784,7.61664 -30.706167,2.87295 -9.124397,-3.33504 -12.02615,-3.89992 -6.448294,-1.25525 14.304455,6.78231 11.916678,9.8598 -17.352534,22.36499 -14.196386,6.06536 -29.652227,13.04591 -34.346316,15.51231 -7.190509,3.77811 -8.11595,3.14123 -5.875697,-4.0433 1.462447,-4.6902 9.728641,-19.89276 18.369171,-33.78345 z M 162.03804,130.09009 c 6.19236,0.38596 2.7324,-1.5415 -7.68882,-4.28335 -10.42121,-2.74179 -15.48772,-3.05763 -11.25886,-0.70178 4.22886,2.3558 12.75531,4.5991 18.94768,4.98509 z m 48.31803,-22.51526 c 6.87709,0.29831 5.99176,-1.20178 -3.41372,-5.78412 -8.20049,-3.995257 -11.48961,-4.137936 -9.28512,-0.40277 1.87754,3.18129 7.59201,5.96536 12.69884,6.18689 z m 31.68201,-20.986628 c 6.91457,-1.959088 4.5529,-3.693242 -9.94457,-7.302195 -16.62904,-4.139641 -17.76591,-3.817524 -9.06807,2.569222 6.26935,4.603521 13.29589,6.352691 19.01265,4.733012 z M 62.407609,200.54996 c 22.883195,-9.65814 29.566498,-9.66541 22.703792,-0.0247 -2.707549,3.80359 -2.403027,5.91236 0.713897,4.94359 2.989534,-0.92924 6.326629,-5.14714 7.415731,-9.37317 1.906388,-7.39739 40.830981,-31.26729 47.982151,-29.42439 1.91907,0.49443 0.91353,6.49486 -2.23447,13.33394 -3.14804,6.8391 -4.05145,11.54433 -2.00758,10.45613 2.04389,-1.08816 5.72508,-7.75309 8.18041,-14.81081 3.04562,-8.75433 11.75125,-16.00921 27.39464,-22.82941 12.61172,-5.49842 29.51539,-13.46863 37.56374,-17.71158 8.04834,-4.24291 17.03782,-6.00436 19.97662,-3.91423 2.93879,2.09012 6.08065,1.21647 6.98189,-1.94137 0.90123,-3.15788 8.17771,-8.33578 16.16992,-11.50641 12.01427,-4.76631 14.95722,-4.44589 16.9903,1.84954 1.84879,5.72478 3.12706,5.09658 5.15114,-2.53139 1.48058,-5.58019 6.40216,-10.57125 10.93665,-11.09126 12.39158,-1.4211 12.60448,-0.87083 4.2399,10.95678 -4.46786,6.3175 -5.59949,10.27596 -2.67828,9.36798 2.78241,-0.8648 8.09209,-7.56693 11.79932,-14.89358 6.61641,-13.076251 18.17877,-21.471813 15.55628,-11.29565 -1.88546,7.31602 -36.97868,46.98283 -48.46391,54.78002 -7.48735,5.08306 -10.15929,4.94659 -12.23887,-0.62521 -1.76088,-4.71785 -2.5899,-3.52207 -2.45191,3.53655 0.16274,8.32418 -9.36698,16.51333 -43.42846,37.3192 -48.15302,29.41345 -70.14917,36.08823 -102.98998,31.25253 -12.061107,-1.77594 -26.378831,-3.62769 -31.817159,-4.11499 -5.438325,-0.48738 -14.781478,-3.65359 -20.762498,-7.03615 l -10.874622,-6.15017 20.191366,-8.52199 z m 63.132901,7.6027 c 2.6087,0.67227 5.67298,-2.52126 6.80957,-7.0968 1.76586,-7.10953 1.13135,-7.45693 -4.36486,-2.38938 -8.09155,7.46041 -8.22941,7.99534 -2.44471,9.48618 z m 55.52246,-38.80125 c 3.02421,-0.93994 6.49096,-6.44026 7.70391,-12.22286 2.05297,-9.78741 1.73182,-9.76218 -4.64808,0.36438 -3.76936,5.98349 -7.23611,11.48381 -7.7039,12.22289 -0.46767,0.73916 1.62382,0.57479 4.64807,-0.36438 z m -8.26935,24.31852 c 1.98226,-1.16992 3.20504,-5.21738 2.71736,-8.99435 -0.53901,-4.17394 -1.95256,-3.33968 -3.60412,2.12706 -1.4946,4.94689 -1.09544,8.03724 0.8868,6.86737 z m 44.96112,-17.39162 c 1.02525,0.26422 2.99666,-3.91436 4.38092,-9.28571 1.38427,-5.37135 0.15057,-9.03064 -2.74155,-8.1317 -4.74747,1.47562 -6.1388,16.25784 -1.63937,17.41741 z m 44.05397,-29.11155 c 2.17393,0.56024 4.77767,-2.18298 5.78611,-6.09599 1.00844,-3.91305 0.0549,-7.57303 -2.11904,-8.13327 -2.17391,-0.56024 -4.77766,2.18298 -5.7861,6.09599 -1.00844,3.91305 -0.0549,7.57303 2.11903,8.13327 z"
       id="path5426"
       inkscape:connector-curvature="0" />
  </g>
  <g
     transform="matrix(0.4072168,-0.18822807,0.18822807,0.4072168,-61.058928,79.376316)"
     id="g5428">
    <path
       inkscape:connector-curvature="0"
       id="path5430"
       d="M 34.90444,168.70363 C 84.756087,93.188242 105.51062,78.392042 177.45602,67.076674 c 57.79222,-9.089399 99.28304,-7.985793 126.14283,3.35525 17.76286,7.50005 22.86941,7.179443 52.05867,-3.268225 17.80017,-6.371147 40.20402,-13.324144 49.78638,-15.451047 15.18734,-3.370989 17.18765,-2.949972 15.59195,3.281804 -1.00678,3.931904 -8.07092,7.084347 -15.69803,7.005472 -7.62714,-0.07891 -28.26784,5.002552 -45.8682,11.292122 -23.56596,8.421411 -32.74426,14.33958 -34.82187,22.453285 C 318.10748,121.28738 237.38899,192.03478 183.65785,219.31891 144.1229,239.39434 120.15079,240.59027 60.111433,225.4824 30.720582,218.08683 7.2438372,211.04415 7.9408163,209.83218 8.6378348,208.62023 20.771407,190.11237 34.90444,168.70363 Z"
       style="fill:#434343;fill-opacity:1" />
    <path
       inkscape:connector-curvature="0"
       id="path5432"
       d="M 45.420676,165.78744 C 89.257621,95.314594 119.04766,78.171112 215.81282,67.730896 c 43.78144,-4.72365 106.33622,6.469418 95.31056,17.054166 -2.11773,2.033079 -7.60513,1.344817 -12.19423,-1.529448 -9.06974,-5.680664 -14.16556,1.73275 -5.38792,7.838337 8.86708,6.167749 -21.40802,7.751107 -32.29651,1.689036 -6.99813,-3.896112 -9.40923,-3.631268 -8.00718,0.879565 1.10337,3.549931 4.3095,5.738454 7.12473,4.863451 2.81523,-0.875014 4.65468,0.209206 4.08766,2.409387 -0.56703,2.20021 -9.00272,6.22882 -18.746,8.95249 -16.14946,4.51452 -24.53376,8.05768 -67.2839,28.43379 -37.75598,17.99569 -36.84242,17.85541 -55.13986,8.46749 -10.74977,-5.51539 -19.72876,-7.70084 -23.20641,-5.64838 -3.586231,2.11654 1.95811,5.31425 15.07536,8.69473 l 20.74774,5.34694 -14.11635,8.9367 c -11.04333,6.99122 -17.72784,7.61664 -30.706167,2.87295 -9.124397,-3.33504 -12.02615,-3.89992 -6.448294,-1.25525 14.304455,6.78231 11.916678,9.8598 -17.352534,22.36499 -14.196386,6.06536 -29.652227,13.04591 -34.346316,15.51231 -7.190509,3.77811 -8.11595,3.14123 -5.875697,-4.0433 1.462447,-4.6902 9.728641,-19.89276 18.369171,-33.78345 z M 162.03804,130.09009 c 6.19236,0.38596 2.7324,-1.5415 -7.68882,-4.28335 -10.42121,-2.74179 -15.48772,-3.05763 -11.25886,-0.70178 4.22886,2.3558 12.75531,4.5991 18.94768,4.98509 z m 48.31803,-22.51526 c 6.87709,0.29831 5.99176,-1.20178 -3.41372,-5.78412 -8.20049,-3.995257 -11.48961,-4.137936 -9.28512,-0.40277 1.87754,3.18129 7.59201,5.96536 12.69884,6.18689 z m 31.68201,-20.986628 c 6.91457,-1.959088 4.5529,-3.693242 -9.94457,-7.302195 -16.62904,-4.139641 -17.76591,-3.817524 -9.06807,2.569222 6.26935,4.603521 13.29589,6.352691 19.01265,4.733012 z M 62.407609,200.54996 c 22.883195,-9.65814 29.566498,-9.66541 22.703792,-0.0247 -2.707549,3.80359 -2.403027,5.91236 0.713897,4.94359 2.989534,-0.92924 6.326629,-5.14714 7.415731,-9.37317 1.906388,-7.39739 40.830981,-31.26729 47.982151,-29.42439 1.91907,0.49443 0.91353,6.49486 -2.23447,13.33394 -3.14804,6.8391 -4.05145,11.54433 -2.00758,10.45613 2.04389,-1.08816 5.72508,-7.75309 8.18041,-14.81081 3.04562,-8.75433 11.75125,-16.00921 27.39464,-22.82941 12.61172,-5.49842 29.51539,-13.46863 37.56374,-17.71158 8.04834,-4.24291 17.03782,-6.00436 19.97662,-3.91423 2.93879,2.09012 6.08065,1.21647 6.98189,-1.94137 0.90123,-3.15788 8.17771,-8.33578 16.16992,-11.50641 12.01427,-4.76631 14.95722,-4.44589 16.9903,1.84954 1.84879,5.72478 3.12706,5.09658 5.15114,-2.53139 1.48058,-5.58019 6.40216,-10.57125 10.93665,-11.09126 12.39158,-1.4211 12.60448,-0.87083 4.2399,10.95678 -4.46786,6.3175 -5.59949,10.27596 -2.67828,9.36798 2.78241,-0.8648 8.09209,-7.56693 11.79932,-14.89358 6.61641,-13.076251 18.17877,-21.471813 15.55628,-11.29565 -1.88546,7.31602 -36.97868,46.98283 -48.46391,54.78002 -7.48735,5.08306 -10.15929,4.94659 -12.23887,-0.62521 -1.76088,-4.71785 -2.5899,-3.52207 -2.45191,3.53655 0.16274,8.32418 -9.36698,16.51333 -43.42846,37.3192 -48.15302,29.41345 -70.14917,36.08823 -102.98998,31.25253 -12.061107,-1.77594 -26.378831,-3.62769 -31.817159,-4.11499 -5.438325,-0.48738 -14.781478,-3.65359 -20.762498,-7.03615 l -10.874622,-6.15017 20.191366,-8.52199 z m 63.132901,7.6027 c 2.6087,0.67227 5.67298,-2.52126 6.80957,-7.0968 1.76586,-7.10953 1.13135,-7.45693 -4.36486,-2.38938 -8.09155,7.46041 -8.22941,7.99534 -2.44471,9.48618 z m 55.52246,-38.80125 c 3.02421,-0.93994 6.49096,-6.44026 7.70391,-12.22286 2.05297,-9.78741 1.73182,-9.76218 -4.64808,0.36438 -3.76936,5.98349 -7.23611,11.48381 -7.7039,12.22289 -0.46767,0.73916 1.62382,0.57479 4.64807,-0.36438 z m -8.26935,24.31852 c 1.98226,-1.16992 3.20504,-5.21738 2.71736,-8.99435 -0.53901,-4.17394 -1.95256,-3.33968 -3.60412,2.12706 -1.4946,4.94689 -1.09544,8.03724 0.8868,6.86737 z m 44.96112,-17.39162 c 1.02525,0.26422 2.99666,-3.91436 4.38092,-9.28571 1.38427,-5.37135 0.15057,-9.03064 -2.74155,-8.1317 -4.74747,1.47562 -6.1388,16.25784 -1.63937,17.41741 z m 44.05397,-29.11155 c 2.17393,0.56024 4.77767,-2.18298 5.78611,-6.09599 1.00844,-3.91305 0.0549,-7.57303 -2.11904,-8.13327 -2.17391,-0.56024 -4.77766,2.18298 -5.7861,6.09599 -1.00844,3.91305 -0.0549,7.57303 2.11903,8.13327 z"
       style="fill:#5d5d5d;fill-opacity:1" />
  </g>
  <g
     id="g5434"
     transform="matrix(0.4072168,-0.18822807,0.18822807,0.4072168,-71.349972,-13.848436)">
    <path
       style="fill:#434343;fill-opacity:1"
       d="M 34.90444,168.70363 C 84.756087,93.188242 105.51062,78.392042 177.45602,67.076674 c 57.79222,-9.089399 99.28304,-7.985793 126.14283,3.35525 17.76286,7.50005 22.86941,7.179443 52.05867,-3.268225 17.80017,-6.371147 40.20402,-13.324144 49.78638,-15.451047 15.18734,-3.370989 17.18765,-2.949972 15.59195,3.281804 -1.00678,3.931904 -8.07092,7.084347 -15.69803,7.005472 -7.62714,-0.07891 -28.26784,5.002552 -45.8682,11.292122 -23.56596,8.421411 -32.74426,14.33958 -34.82187,22.453285 C 318.10748,121.28738 237.38899,192.03478 183.65785,219.31891 144.1229,239.39434 120.15079,240.59027 60.111433,225.4824 30.720582,218.08683 7.2438372,211.04415 7.9408163,209.83218 8.6378348,208.62023 20.771407,190.11237 34.90444,168.70363 Z"
       id="path5436"
       inkscape:connector-curvature="0" />
    <path
       style="fill:#5d5d5d;fill-opacity:1"
       d="M 45.420676,165.78744 C 89.257621,95.314594 119.04766,78.171112 215.81282,67.730896 c 43.78144,-4.72365 106.33622,6.469418 95.31056,17.054166 -2.11773,2.033079 -7.60513,1.344817 -12.19423,-1.529448 -9.06974,-5.680664 -14.16556,1.73275 -5.38792,7.838337 8.86708,6.167749 -21.40802,7.751107 -32.29651,1.689036 -6.99813,-3.896112 -9.40923,-3.631268 -8.00718,0.879565 1.10337,3.549931 4.3095,5.738454 7.12473,4.863451 2.81523,-0.875014 4.65468,0.209206 4.08766,2.409387 -0.56703,2.20021 -9.00272,6.22882 -18.746,8.95249 -16.14946,4.51452 -24.53376,8.05768 -67.2839,28.43379 -37.75598,17.99569 -36.84242,17.85541 -55.13986,8.46749 -10.74977,-5.51539 -19.72876,-7.70084 -23.20641,-5.64838 -3.586231,2.11654 1.95811,5.31425 15.07536,8.69473 l 20.74774,5.34694 -14.11635,8.9367 c -11.04333,6.99122 -17.72784,7.61664 -30.706167,2.87295 -9.124397,-3.33504 -12.02615,-3.89992 -6.448294,-1.25525 14.304455,6.78231 11.916678,9.8598 -17.352534,22.36499 -14.196386,6.06536 -29.652227,13.04591 -34.346316,15.51231 -7.190509,3.77811 -8.11595,3.14123 -5.875697,-4.0433 1.462447,-4.6902 9.728641,-19.89276 18.369171,-33.78345 z M 162.03804,130.09009 c 6.19236,0.38596 2.7324,-1.5415 -7.68882,-4.28335 -10.42121,-2.74179 -15.48772,-3.05763 -11.25886,-0.70178 4.22886,2.3558 12.75531,4.5991 18.94768,4.98509 z m 48.31803,-22.51526 c 6.87709,0.29831 5.99176,-1.20178 -3.41372,-5.78412 -8.20049,-3.995257 -11.48961,-4.137936 -9.28512,-0.40277 1.87754,3.18129 7.59201,5.96536 12.69884,6.18689 z m 31.68201,-20.986628 c 6.91457,-1.959088 4.5529,-3.693242 -9.94457,-7.302195 -16.62904,-4.139641 -17.76591,-3.817524 -9.06807,2.569222 6.26935,4.603521 13.29589,6.352691 19.01265,4.733012 z M 62.407609,200.54996 c 22.883195,-9.65814 29.566498,-9.66541 22.703792,-0.0247 -2.707549,3.80359 -2.403027,5.91236 0.713897,4.94359 2.989534,-0.92924 6.326629,-5.14714 7.415731,-9.37317 1.906388,-7.39739 40.830981,-31.26729 47.982151,-29.42439 1.91907,0.49443 0.91353,6.49486 -2.23447,13.33394 -3.14804,6.8391 -4.05145,11.54433 -2.00758,10.45613 2.04389,-1.08816 5.72508,-7.75309 8.18041,-14.81081 3.04562,-8.75433 11.75125,-16.00921 27.39464,-22.82941 12.61172,-5.49842 29.51539,-13.46863 37.56374,-17.71158 8.04834,-4.24291 17.03782,-6.00436 19.97662,-3.91423 2.93879,2.09012 6.08065,1.21647 6.98189,-1.94137 0.90123,-3.15788 8.17771,-8.33578 16.16992,-11.50641 12.01427,-4.76631 14.95722,-4.44589 16.9903,1.84954 1.84879,5.72478 3.12706,5.09658 5.15114,-2.53139 1.48058,-5.58019 6.40216,-10.57125 10.93665,-11.09126 12.39158,-1.4211 12.60448,-0.87083 4.2399,10.95678 -4.46786,6.3175 -5.59949,10.27596 -2.67828,9.36798 2.78241,-0.8648 8.09209,-7.56693 11.79932,-14.89358 6.61641,-13.076251 18.17877,-21.471813 15.55628,-11.29565 -1.88546,7.31602 -36.97868,46.98283 -48.46391,54.78002 -7.48735,5.08306 -10.15929,4.94659 -12.23887,-0.62521 -1.76088,-4.71785 -2.5899,-3.52207 -2.45191,3.53655 0.16274,8.32418 -9.36698,16.51333 -43.42846,37.3192 -48.15302,29.41345 -70.14917,36.08823 -102.98998,31.25253 -12.061107,-1.77594 -26.378831,-3.62769 -31.817159,-4.11499 -5.438325,-0.48738 -14.781478,-3.65359 -20.762498,-7.03615 l -10.874622,-6.15017 20.191366,-8.52199 z m 63.132901,7.6027 c 2.6087,0.67227 5.67298,-2.52126 6.80957,-7.0968 1.76586,-7.10953 1.13135,-7.45693 -4.36486,-2.38938 -8.09155,7.46041 -8.22941,7.99534 -2.44471,9.48618 z m 55.52246,-38.80125 c 3.02421,-0.93994 6.49096,-6.44026 7.70391,-12.22286 2.05297,-9.78741 1.73182,-9.76218 -4.64808,0.36438 -3.76936,5.98349 -7.23611,11.48381 -7.7039,12.22289 -0.46767,0.73916 1.62382,0.57479 4.64807,-0.36438 z m -8.26935,24.31852 c 1.98226,-1.16992 3.20504,-5.21738 2.71736,-8.99435 -0.53901,-4.17394 -1.95256,-3.33968 -3.60412,2.12706 -1.4946,4.94689 -1.09544,8.03724 0.8868,6.86737 z m 44.96112,-17.39162 c 1.02525,0.26422 2.99666,-3.91436 4.38092,-9.28571 1.38427,-5.37135 0.15057,-9.03064 -2.74155,-8.1317 -4.74747,1.47562 -6.1388,16.25784 -1.63937,17.41741 z m 44.05397,-29.11155 c 2.17393,0.56024 4.77767,-2.18298 5.78611,-6.09599 1.00844,-3.91305 0.0549,-7.57303 -2.11904,-8.13327 -2.17391,-0.56024 -4.77766,2.18298 -5.7861,6.09599 -1.00844,3.91305 -0.0549,7.57303 2.11903,8.13327 z"
       id="path5438"
       inkscape:connector-curvature="0" />
  </g>
  <g
     transform="matrix(0.4072168,-0.18822807,0.18822807,0.4072168,-71.349972,-13.848436)"
     id="g5440">
    <path
       inkscape:connector-curvature="0"
       id="path5442"
       d="M 34.90444,168.70363 C 84.756087,93.188242 105.51062,78.392042 177.45602,67.076674 c 57.79222,-9.089399 99.28304,-7.985793 126.14283,3.35525 17.76286,7.50005 22.86941,7.179443 52.05867,-3.268225 17.80017,-6.371147 40.20402,-13.324144 49.78638,-15.451047 15.18734,-3.370989 17.18765,-2.949972 15.59195,3.281804 -1.00678,3.931904 -8.07092,7.084347 -15.69803,7.005472 -7.62714,-0.07891 -28.26784,5.002552 -45.8682,11.292122 -23.56596,8.421411 -32.74426,14.33958 -34.82187,22.453285 C 318.10748,121.28738 237.38899,192.03478 183.65785,219.31891 144.1229,239.39434 120.15079,240.59027 60.111433,225.4824 30.720582,218.08683 7.2438372,211.04415 7.9408163,209.83218 8.6378348,208.62023 20.771407,190.11237 34.90444,168.70363 Z"
       style="fill:#434343;fill-opacity:1" />
    <path
       inkscape:connector-curvature="0"
       id="path5444"
       d="M 45.420676,165.78744 C 89.257621,95.314594 119.04766,78.171112 215.81282,67.730896 c 43.78144,-4.72365 106.33622,6.469418 95.31056,17.054166 -2.11773,2.033079 -7.60513,1.344817 -12.19423,-1.529448 -9.06974,-5.680664 -14.16556,1.73275 -5.38792,7.838337 8.86708,6.167749 -21.40802,7.751107 -32.29651,1.689036 -6.99813,-3.896112 -9.40923,-3.631268 -8.00718,0.879565 1.10337,3.549931 4.3095,5.738454 7.12473,4.863451 2.81523,-0.875014 4.65468,0.209206 4.08766,2.409387 -0.56703,2.20021 -9.00272,6.22882 -18.746,8.95249 -16.14946,4.51452 -24.53376,8.05768 -67.2839,28.43379 -37.75598,17.99569 -36.84242,17.85541 -55.13986,8.46749 -10.74977,-5.51539 -19.72876,-7.70084 -23.20641,-5.64838 -3.586231,2.11654 1.95811,5.31425 15.07536,8.69473 l 20.74774,5.34694 -14.11635,8.9367 c -11.04333,6.99122 -17.72784,7.61664 -30.706167,2.87295 -9.124397,-3.33504 -12.02615,-3.89992 -6.448294,-1.25525 14.304455,6.78231 11.916678,9.8598 -17.352534,22.36499 -14.196386,6.06536 -29.652227,13.04591 -34.346316,15.51231 -7.190509,3.77811 -8.11595,3.14123 -5.875697,-4.0433 1.462447,-4.6902 9.728641,-19.89276 18.369171,-33.78345 z M 162.03804,130.09009 c 6.19236,0.38596 2.7324,-1.5415 -7.68882,-4.28335 -10.42121,-2.74179 -15.48772,-3.05763 -11.25886,-0.70178 4.22886,2.3558 12.75531,4.5991 18.94768,4.98509 z m 48.31803,-22.51526 c 6.87709,0.29831 5.99176,-1.20178 -3.41372,-5.78412 -8.20049,-3.995257 -11.48961,-4.137936 -9.28512,-0.40277 1.87754,3.18129 7.59201,5.96536 12.69884,6.18689 z m 31.68201,-20.986628 c 6.91457,-1.959088 4.5529,-3.693242 -9.94457,-7.302195 -16.62904,-4.139641 -17.76591,-3.817524 -9.06807,2.569222 6.26935,4.603521 13.29589,6.352691 19.01265,4.733012 z M 62.407609,200.54996 c 22.883195,-9.65814 29.566498,-9.66541 22.703792,-0.0247 -2.707549,3.80359 -2.403027,5.91236 0.713897,4.94359 2.989534,-0.92924 6.326629,-5.14714 7.415731,-9.37317 1.906388,-7.39739 40.830981,-31.26729 47.982151,-29.42439 1.91907,0.49443 0.91353,6.49486 -2.23447,13.33394 -3.14804,6.8391 -4.05145,11.54433 -2.00758,10.45613 2.04389,-1.08816 5.72508,-7.75309 8.18041,-14.81081 3.04562,-8.75433 11.75125,-16.00921 27.39464,-22.82941 12.61172,-5.49842 29.51539,-13.46863 37.56374,-17.71158 8.04834,-4.24291 17.03782,-6.00436 19.97662,-3.91423 2.93879,2.09012 6.08065,1.21647 6.98189,-1.94137 0.90123,-3.15788 8.17771,-8.33578 16.16992,-11.50641 12.01427,-4.76631 14.95722,-4.44589 16.9903,1.84954 1.84879,5.72478 3.12706,5.09658 5.15114,-2.53139 1.48058,-5.58019 6.40216,-10.57125 10.93665,-11.09126 12.39158,-1.4211 12.60448,-0.87083 4.2399,10.95678 -4.46786,6.3175 -5.59949,10.27596 -2.67828,9.36798 2.78241,-0.8648 8.09209,-7.56693 11.79932,-14.89358 6.61641,-13.076251 18.17877,-21.471813 15.55628,-11.29565 -1.88546,7.31602 -36.97868,46.98283 -48.46391,54.78002 -7.48735,5.08306 -10.15929,4.94659 -12.23887,-0.62521 -1.76088,-4.71785 -2.5899,-3.52207 -2.45191,3.53655 0.16274,8.32418 -9.36698,16.51333 -43.42846,37.3192 -48.15302,29.41345 -70.14917,36.08823 -102.98998,31.25253 -12.061107,-1.77594 -26.378831,-3.62769 -31.817159,-4.11499 -5.438325,-0.48738 -14.781478,-3.65359 -20.762498,-7.03615 l -10.874622,-6.15017 20.191366,-8.52199 z m 63.132901,7.6027 c 2.6087,0.67227 5.67298,-2.52126 6.80957,-7.0968 1.76586,-7.10953 1.13135,-7.45693 -4.36486,-2.38938 -8.09155,7.46041 -8.22941,7.99534 -2.44471,9.48618 z m 55.52246,-38.80125 c 3.02421,-0.93994 6.49096,-6.44026 7.70391,-12.22286 2.05297,-9.78741 1.73182,-9.76218 -4.64808,0.36438 -3.76936,5.98349 -7.23611,11.48381 -7.7039,12.22289 -0.46767,0.73916 1.62382,0.57479 4.64807,-0.36438 z m -8.26935,24.31852 c 1.98226,-1.16992 3.20504,-5.21738 2.71736,-8.99435 -0.53901,-4.17394 -1.95256,-3.33968 -3.60412,2.12706 -1.4946,4.94689 -1.09544,8.03724 0.8868,6.86737 z m 44.96112,-17.39162 c 1.02525,0.26422 2.99666,-3.91436 4.38092,-9.28571 1.38427,-5.37135 0.15057,-9.03064 -2.74155,-8.1317 -4.74747,1.47562 -6.1388,16.25784 -1.63937,17.41741 z m 44.05397,-29.11155 c 2.17393,0.56024 4.77767,-2.18298 5.78611,-6.09599 1.00844,-3.91305 0.0549,-7.57303 -2.11904,-8.13327 -2.17391,-0.56024 -4.77766,2.18298 -5.7861,6.09599 -1.00844,3.91305 -0.0549,7.57303 2.11903,8.13327 z"
       style="fill:#5d5d5d;fill-opacity:1" />
  </g>
  <text
     xml:space="preserve"
     style="font-style:normal;font-variant:normal;font-weight:normal;font-stretch:normal;font-size:8.13700008px;line-height:125%;font-family:FontAwesome;-inkscape-font-specification:'FontAwesome, Normal';text-align:start;letter-spacing:0px;word-spacing:0px;writing-mode:lr-tb;text-anchor:start;fill:#ffffff;fill-opacity:1;stroke:none;stroke-width:1px;stroke-linecap:butt;stroke-linejoin:miter;stroke-opacity:1"
     x="17.598459"
     y="77.152168"
     id="text5489"
     sodipodi:linespacing="125%"><tspan
       sodipodi:role="line"
       id="tspan5491"
       x="17.598459"
       y="77.152168"
       style="font-style:normal;font-variant:normal;font-weight:normal;font-stretch:normal;font-size:25.42812157px;font-family:'Noto Serif';-inkscape-font-specification:'Noto Serif';fill:#ffffff;fill-opacity:1">Page 104</tspan></text>
</svg>
