<?xml version="1.0" encoding="UTF-8" standalone="no"?>
<!-- Created with Inkscape (http://www.inkscape.org/) -->

<svg
   xmlns:dc="http://purl.org/dc/elements/1.1/"
   xmlns:cc="http://creativecommons.org/ns#"
   xmlns:rdf="http://www.w3.org/1999/02/22-rdf-syntax-ns#"
   xmlns:svg="http://www.w3.org/2000/svg"
   xmlns="http://www.w3.org/2000/svg"
   xmlns:sodipodi="http://sodipodi.sourceforge.net/DTD/sodipodi-0.dtd"
   xmlns:inkscape="http://www.inkscape.org/namespaces/inkscape"
   id="svg4171"
   version="1.1"
   inkscape:version="0.91 r13725"
   width="438"
   height="285"
   viewBox="0 0 438 285"
   sodipodi:docname="bookexvector2.svg"
   inkscape:export-filename="/Users/mac/Documents/web-design/websites/isobel_bootstrap/img/bookexvector.png"
   inkscape:export-xdpi="90"
   inkscape:export-ydpi="90">
  <metadata
     id="metadata4177">
    <rdf:RDF>
      <cc:Work
         rdf:about="">
        <dc:format>image/svg+xml</dc:format>
        <dc:type
           rdf:resource="http://purl.org/dc/dcmitype/StillImage" />
        <dc:title></dc:title>
      </cc:Work>
    </rdf:RDF>
  </metadata>
  <defs
     id="defs4175">
    <filter
       style="color-interpolation-filters:sRGB;"
       inkscape:label="Drop Shadow"
       id="filter6258">
      <feFlood
         flood-opacity="0.498039"
         flood-color="rgb(0,0,0)"
         result="flood"
         id="feFlood6260" />
      <feComposite
         in="flood"
         in2="SourceGraphic"
         operator="in"
         result="composite1"
         id="feComposite6262" />
      <feGaussianBlur
         in="composite1"
         stdDeviation="3.4"
         result="blur"
         id="feGaussianBlur6264" />
      <feOffset
         dx="2.4"
         dy="2.4"
         result="offset"
         id="feOffset6266" />
      <feComposite
         in="SourceGraphic"
         in2="offset"
         operator="over"
         result="fbSourceGraphic"
         id="feComposite6268" />
      <feColorMatrix
         result="fbSourceGraphicAlpha"
         in="fbSourceGraphic"
         values="0 0 0 -1 0 0 0 0 -1 0 0 0 0 -1 0 0 0 0 1 0"
         id="feColorMatrix6270" />
      <feFlood
         id="feFlood6272"
         flood-opacity="0.498039"
         flood-color="rgb(0,0,0)"
         result="flood"
         in="fbSourceGraphic" />
      <feComposite
         id="feComposite6274"
         in2="fbSourceGraphic"
         in="flood"
         operator="in"
         result="composite1" />
      <feGaussianBlur
         id="feGaussianBlur6276"
         in="composite1"
         stdDeviation="3.4"
         result="blur" />
      <feOffset
         id="feOffset6278"
         dx="2.4"
         dy="2.4"
         result="offset" />
      <feComposite
         id="feComposite6280"
         in2="offset"
         in="fbSourceGraphic"
         operator="over"
         result="composite2" />
    </filter>
    <filter
       style="color-interpolation-filters:sRGB;"
       inkscape:label="Drop Shadow"
       id="filter8504">
      <feFlood
         flood-opacity="0.498039"
         flood-color="rgb(161,161,161)"
         result="flood"
         id="feFlood8506" />
      <feComposite
         in="flood"
         in2="SourceGraphic"
         operator="in"
         result="composite1"
         id="feComposite8508" />
      <feGaussianBlur
         in="composite1"
         stdDeviation="0.4"
         result="blur"
         id="feGaussianBlur8510" />
      <feOffset
         dx="1.8"
         dy="2.4"
         result="offset"
         id="feOffset8512" />
      <feComposite
         in="SourceGraphic"
         in2="offset"
         operator="over"
         result="composite2"
         id="feComposite8514" />
    </filter>
  </defs>
  <sodipodi:namedview
     pagecolor="#ffffff"
     bordercolor="#666666"
     borderopacity="1"
     objecttolerance="10"
     gridtolerance="10"
     guidetolerance="10"
     inkscape:pageopacity="0"
     inkscape:pageshadow="2"
     inkscape:window-width="1218"
     inkscape:window-height="696"
     id="namedview4173"
     showgrid="false"
     inkscape:zoom="1.1680851"
     inkscape:cx="237.36556"
     inkscape:cy="79.062292"
     inkscape:window-x="34"
     inkscape:window-y="80"
     inkscape:window-maximized="0"
     inkscape:current-layer="svg4171" />
  <rect
     style="opacity:1;fill:#625236;fill-opacity:1;stroke:none;stroke-width:0.99999994;stroke-miterlimit:4;stroke-dasharray:none;stroke-opacity:1;filter:url(#filter8504)"
     id="rect4834"
     width="383.27795"
     height="243.48225"
     x="27.361023"
     y="20.758873" />
  <g
     id="g8130"
     transform="matrix(1.1505918,0,0,1.1505918,105.25447,-40.321373)">
    <path
       inkscape:connector-curvature="0"
       id="path8124"
       d="m 170.20911,237.70572 c -9.71192,-41.58495 -8.05275,-53.49797 11.39592,-81.82407 15.62271,-22.75375 29.45279,-36.61404 42.04703,-42.13887 8.32879,-3.65366 9.87456,-5.50762 15.75837,-18.900213 3.58807,-8.167045 8.46936,-18.100496 10.84735,-22.074334 3.76892,-6.298241 4.56171,-6.847119 6.17961,-4.278353 1.02082,1.620741 -0.18933,5.064358 -2.68918,7.652475 -2.49987,2.588119 -7.45078,11.310131 -11.00202,19.382236 -4.75493,10.808129 -5.70287,15.873599 -3.59639,19.218109 6.63127,10.52854 4.702,61.14416 -3.36981,88.40962 -5.93918,20.06171 -13.30152,28.66467 -37.94374,44.33753 -12.06296,7.67232 -22.08757,13.43245 -22.27687,12.80037 -0.18927,-0.63208 -2.59693,-10.79509 -5.35027,-22.5845 z"
       style="fill:#383838;fill-opacity:1" />
    <path
       inkscape:connector-curvature="0"
       id="path8126"
       d="m 172.61943,233.15577 c -9.9342,-37.88771 -6.14987,-53.65868 21.64561,-90.20622 12.57608,-16.53595 36.69247,-34.34099 36.74454,-27.12835 0.01,1.38536 -2.00491,3.04251 -4.4776,3.68256 -4.88697,1.26495 -3.99898,5.41655 0.93888,4.38957 4.98815,-1.03747 -4.28496,9.85114 -9.89228,11.61561 -3.60386,1.13404 -4.29483,2.04623 -2.29468,3.02933 1.57408,0.77369 3.36343,0.38507 3.97636,-0.86357 0.61293,-1.24865 1.5808,-1.52722 2.15084,-0.61905 0.57003,0.90819 -0.78458,5.1061 -3.01026,9.3287 -3.68904,6.99898 -5.19333,11.02177 -12.0719,32.28284 -6.07501,18.77729 -5.82689,18.41872 -14.97587,21.64304 -5.37502,1.8943 -9.03497,4.2622 -9.45922,6.11988 -0.4375,1.91568 2.45573,1.05322 7.86682,-2.34507 l 8.5588,-5.37513 -1.51466,7.73706 c -1.18495,6.05275 -3.13787,8.54637 -8.97101,11.45474 -4.10099,2.04474 -5.23533,2.85586 -2.52074,1.80248 6.9616,-2.7014 7.24192,-0.88462 2.03719,13.20295 -2.52445,6.83286 -5.14365,14.39426 -5.82046,16.8031 -1.03674,3.68993 -1.555,3.80042 -3.29038,0.70165 -1.1329,-2.02293 -3.66188,-9.78821 -5.62,-17.25613 z m 25.57776,-51.54548 c 2.1399,-1.99681 0.35771,-1.43651 -3.96047,1.2451 -4.31817,2.68162 -6.06902,4.31538 -3.89076,3.63057 2.17826,-0.68482 5.7113,-2.87887 7.85122,-4.87568 z m 7.9508,-23.86317 c 2.33187,-2.2599 1.53084,-2.44322 -3.08865,-0.70686 -4.02765,1.51392 -5.14292,2.59476 -3.14837,3.05121 1.69876,0.38878 4.5054,-0.66618 6.23702,-2.34435 z m 3.08093,-17.66625 c 1.57055,-3.00518 0.21067,-2.75852 -5.7262,1.03862 -6.80979,4.35543 -7.06801,4.84953 -2.05968,3.94111 3.60996,-0.65478 6.48741,-2.49515 7.7859,-4.97973 z m -19.19105,98.53263 c 4.10981,-10.97542 6.27414,-13.26806 7.35244,-7.78832 0.42543,2.16195 1.24671,2.74179 1.92533,1.35934 0.65085,-1.32597 0.28757,-3.83808 -0.80734,-5.58246 -1.91656,-3.05342 2.5246,-24.13711 5.47457,-25.98978 0.79161,-0.49722 2.52158,1.79424 3.84429,5.092 1.32271,3.29778 2.642,5.13401 2.9318,4.08053 0.28981,-1.05347 -0.80036,-4.47745 -2.42256,-7.60878 -2.01215,-3.88409 -1.67546,-9.22129 1.05949,-16.79493 2.20493,-6.10587 4.95444,-14.48452 6.11003,-18.61924 1.15561,-4.1347 3.46658,-7.78679 5.13555,-8.11572 1.66896,-0.32893 2.38825,-1.68907 1.59844,-3.02249 -0.78982,-1.33344 -0.20483,-5.507 1.29998,-9.27455 2.26207,-5.6636 3.32601,-6.56814 6.14223,-5.22226 2.56094,1.22389 2.76013,0.58202 0.80272,-2.58655 -1.43197,-2.31791 -1.54645,-5.62385 -0.25448,-7.34648 3.53061,-4.70751 3.78818,-4.60194 5.12887,2.10204 0.71608,3.58083 1.70551,5.25297 2.3415,3.95731 0.60579,-1.23408 0.0309,-5.22819 -1.27762,-8.87579 -2.3353,-6.51003 -1.46326,-13.19629 1.17324,-8.99588 1.89547,3.01985 4.10915,27.91599 3.05709,34.38168 -0.68585,4.21504 -1.59889,5.08641 -4.18224,3.99124 -2.18743,-0.92731 -2.04649,-0.25523 0.41681,1.98769 2.90496,2.64507 2.62121,8.5678 -1.29311,26.99082 -5.53371,26.04479 -10.37815,35.74826 -22.68253,45.4334 -4.5189,3.55697 -9.7954,7.86266 -11.72556,9.56819 -1.93018,1.70551 -6.04424,3.87999 -9.14237,4.83212 l -5.63301,1.73112 3.62637,-9.68433 z m 23.07361,-19.16808 c 1.07613,-0.67585 0.97538,-2.7621 -0.22388,-4.63616 -1.86349,-2.91187 -2.18824,-2.80714 -2.23385,0.72054 -0.0672,5.19344 0.0714,5.41424 2.45773,3.91562 z m 4.70636,-31.61614 c 0.65844,-1.34132 -0.10222,-4.31394 -1.69031,-6.60581 -2.68796,-3.87911 -2.78343,-3.76087 -1.38213,1.71106 0.8281,3.2331 1.58875,6.20572 1.69033,6.60582 0.10163,0.40009 0.72341,-0.36997 1.38212,-1.71106 z m 5.65144,10.7241 c 0.24182,-1.05888 -0.74855,-2.79114 -2.20081,-3.84948 -1.60491,-1.16955 -1.77736,-0.41446 -0.43969,1.92523 1.21043,2.11723 2.39872,2.98312 2.64055,1.92426 z m 8.61801,-21.05041 c 0.42293,-0.26561 -0.36965,-2.29695 -1.76127,-4.5141 -1.39163,-2.21714 -3.04544,-2.98164 -3.67509,-1.69889 -1.0336,2.10567 3.58029,7.37865 5.43638,6.21298 z m 4.30818,-24.54215 c 0.89679,-0.5632 0.80102,-2.34552 -0.21279,-3.9607 -1.01381,-1.6152 -2.57701,-2.47593 -3.4738,-1.91272 -0.89677,0.56319 -0.80101,2.34552 0.21279,3.9607 1.01381,1.61519 2.57702,2.47593 3.4738,1.91272 z"
       style="fill:#959595;fill-opacity:1" />
  </g>
  <g
     transform="matrix(0.5667366,-0.2963529,0.2963529,0.5667366,147.52066,133.84692)"
     id="g8106">
    <path
       inkscape:connector-curvature="0"
       id="path4187-8"
       d="M 34.90444,168.70363 C 84.756087,93.188242 105.51062,78.392042 177.45602,67.076674 c 57.79222,-9.089399 99.28304,-7.985793 126.14283,3.35525 17.76286,7.50005 22.86941,7.179443 52.05867,-3.268225 17.80017,-6.371147 40.20402,-13.324144 49.78638,-15.451047 15.18734,-3.370989 17.18765,-2.949972 15.59195,3.281804 -1.00678,3.931904 -8.07092,7.084347 -15.69803,7.005472 -7.62714,-0.07891 -28.26784,5.002552 -45.8682,11.292122 -23.56596,8.421411 -32.74426,14.33958 -34.82187,22.453285 C 318.10748,121.28738 237.38899,192.03478 183.65785,219.31891 144.1229,239.39434 120.15079,240.59027 60.111433,225.4824 30.720582,218.08683 7.2438372,211.04415 7.9408163,209.83218 8.6378348,208.62023 20.771407,190.11237 34.90444,168.70363 Z"
       style="fill:#323232;fill-opacity:1" />
    <path
       inkscape:connector-curvature="0"
       id="path4189-6"
       d="M 45.420676,165.78744 C 89.257621,95.314594 119.04766,78.171112 215.81282,67.730896 c 43.78144,-4.72365 106.33622,6.469418 95.31056,17.054166 -2.11773,2.033079 -7.60513,1.344817 -12.19423,-1.529448 -9.06974,-5.680664 -14.16556,1.73275 -5.38792,7.838337 8.86708,6.167749 -21.40802,7.751107 -32.29651,1.689036 -6.99813,-3.896112 -9.40923,-3.631268 -8.00718,0.879565 1.10337,3.549931 4.3095,5.738454 7.12473,4.863451 2.81523,-0.875014 4.65468,0.209206 4.08766,2.409387 -0.56703,2.20021 -9.00272,6.22882 -18.746,8.95249 -16.14946,4.51452 -24.53376,8.05768 -67.2839,28.43379 -37.75598,17.99569 -36.84242,17.85541 -55.13986,8.46749 -10.74977,-5.51539 -19.72876,-7.70084 -23.20641,-5.64838 -3.586231,2.11654 1.95811,5.31425 15.07536,8.69473 l 20.74774,5.34694 -14.11635,8.9367 c -11.04333,6.99122 -17.72784,7.61664 -30.706167,2.87295 -9.124397,-3.33504 -12.02615,-3.89992 -6.448294,-1.25525 14.304455,6.78231 11.916678,9.8598 -17.352534,22.36499 -14.196386,6.06536 -29.652227,13.04591 -34.346316,15.51231 -7.190509,3.77811 -8.11595,3.14123 -5.875697,-4.0433 1.462447,-4.6902 9.728641,-19.89276 18.369171,-33.78345 z M 162.03804,130.09009 c 6.19236,0.38596 2.7324,-1.5415 -7.68882,-4.28335 -10.42121,-2.74179 -15.48772,-3.05763 -11.25886,-0.70178 4.22886,2.3558 12.75531,4.5991 18.94768,4.98509 z m 48.31803,-22.51526 c 6.87709,0.29831 5.99176,-1.20178 -3.41372,-5.78412 -8.20049,-3.995257 -11.48961,-4.137936 -9.28512,-0.40277 1.87754,3.18129 7.59201,5.96536 12.69884,6.18689 z m 31.68201,-20.986628 c 6.91457,-1.959088 4.5529,-3.693242 -9.94457,-7.302195 -16.62904,-4.139641 -17.76591,-3.817524 -9.06807,2.569222 6.26935,4.603521 13.29589,6.352691 19.01265,4.733012 z M 62.407609,200.54996 c 22.883195,-9.65814 29.566498,-9.66541 22.703792,-0.0247 -2.707549,3.80359 -2.403027,5.91236 0.713897,4.94359 2.989534,-0.92924 6.326629,-5.14714 7.415731,-9.37317 1.906388,-7.39739 40.830981,-31.26729 47.982151,-29.42439 1.91907,0.49443 0.91353,6.49486 -2.23447,13.33394 -3.14804,6.8391 -4.05145,11.54433 -2.00758,10.45613 2.04389,-1.08816 5.72508,-7.75309 8.18041,-14.81081 3.04562,-8.75433 11.75125,-16.00921 27.39464,-22.82941 12.61172,-5.49842 29.51539,-13.46863 37.56374,-17.71158 8.04834,-4.24291 17.03782,-6.00436 19.97662,-3.91423 2.93879,2.09012 6.08065,1.21647 6.98189,-1.94137 0.90123,-3.15788 8.17771,-8.33578 16.16992,-11.50641 12.01427,-4.76631 14.95722,-4.44589 16.9903,1.84954 1.84879,5.72478 3.12706,5.09658 5.15114,-2.53139 1.48058,-5.58019 6.40216,-10.57125 10.93665,-11.09126 12.39158,-1.4211 12.60448,-0.87083 4.2399,10.95678 -4.46786,6.3175 -5.59949,10.27596 -2.67828,9.36798 2.78241,-0.8648 8.09209,-7.56693 11.79932,-14.89358 6.61641,-13.076251 18.17877,-21.471813 15.55628,-11.29565 -1.88546,7.31602 -36.97868,46.98283 -48.46391,54.78002 -7.48735,5.08306 -10.15929,4.94659 -12.23887,-0.62521 -1.76088,-4.71785 -2.5899,-3.52207 -2.45191,3.53655 0.16274,8.32418 -9.36698,16.51333 -43.42846,37.3192 -48.15302,29.41345 -70.14917,36.08823 -102.98998,31.25253 -12.061107,-1.77594 -26.378831,-3.62769 -31.817159,-4.11499 -5.438325,-0.48738 -14.781478,-3.65359 -20.762498,-7.03615 l -10.874622,-6.15017 20.191366,-8.52199 z m 63.132901,7.6027 c 2.6087,0.67227 5.67298,-2.52126 6.80957,-7.0968 1.76586,-7.10953 1.13135,-7.45693 -4.36486,-2.38938 -8.09155,7.46041 -8.22941,7.99534 -2.44471,9.48618 z m 55.52246,-38.80125 c 3.02421,-0.93994 6.49096,-6.44026 7.70391,-12.22286 2.05297,-9.78741 1.73182,-9.76218 -4.64808,0.36438 -3.76936,5.98349 -7.23611,11.48381 -7.7039,12.22289 -0.46767,0.73916 1.62382,0.57479 4.64807,-0.36438 z m -8.26935,24.31852 c 1.98226,-1.16992 3.20504,-5.21738 2.71736,-8.99435 -0.53901,-4.17394 -1.95256,-3.33968 -3.60412,2.12706 -1.4946,4.94689 -1.09544,8.03724 0.8868,6.86737 z m 44.96112,-17.39162 c 1.02525,0.26422 2.99666,-3.91436 4.38092,-9.28571 1.38427,-5.37135 0.15057,-9.03064 -2.74155,-8.1317 -4.74747,1.47562 -6.1388,16.25784 -1.63937,17.41741 z m 44.05397,-29.11155 c 2.17393,0.56024 4.77767,-2.18298 5.78611,-6.09599 1.00844,-3.91305 0.0549,-7.57303 -2.11904,-8.13327 -2.17391,-0.56024 -4.77766,2.18298 -5.7861,6.09599 -1.00844,3.91305 -0.0549,7.57303 2.11903,8.13327 z"
       style="fill:#393939;fill-opacity:1" />
  </g>
  <g
     id="g8118"
     transform="matrix(-0.55988211,1.1977548,-1.1579607,-0.57846089,562.17788,-112.84639)">
    <path
       style="fill:#565656;fill-opacity:1"
       d="m 365.56496,274.80898 c -69.36134,-10.27164 -86.55074,-19.99977 -118.06459,-66.81725 -25.3144,-37.60749 -38.13077,-67.1062 -38.96506,-89.68371 -0.55172,-14.93091 -2.44964,-18.411996 -19.34827,-35.48794 -10.30508,-10.413252 -22.52682,-23.868867 -27.1594,-29.901419 -7.3423,-9.561153 -7.70189,-11.103798 -2.80287,-12.024585 3.091,-0.580978 7.61886,3.347196 10.06192,8.729221 2.44305,5.382056 12.77293,18.212557 22.95527,28.512213 13.63362,13.790698 20.79628,18.297571 27.17475,17.098734 20.0795,-3.774002 96.20372,29.735956 132.96518,58.531376 27.04878,21.18745 35.74131,37.63026 44.79913,84.74226 4.43414,23.06252 7.17878,41.85622 6.09935,41.76377 -1.07942,-0.0925 -18.05135,-2.55063 -37.71541,-5.46267 z"
       id="path8112"
       inkscape:connector-curvature="0" />
    <path
       style="fill:#4d4d4d;fill-opacity:1"
       d="m 360.07219,268.37916 c -63.84992,-7.69959 -85.64753,-23.00405 -124.67713,-87.53805 -17.65895,-29.19844 -30.28996,-76.79451 -19.24501,-72.51897 2.12145,0.8212 3.43566,4.90022 2.92046,9.06448 -1.01826,8.23013 5.85713,9.38025 7.26948,1.21606 1.4267,-8.24737 12.456,12.49484 11.76568,22.12714 -0.44366,6.19075 0.53215,7.79721 3.24063,5.33497 2.13153,-1.93772 2.61818,-4.90615 1.08151,-6.59654 -1.53669,-1.69038 -1.37785,-3.33731 0.35299,-3.65984 1.73085,-0.32253 7.3233,4.28181 12.42767,10.23188 8.46052,9.86222 13.69522,14.5895 42.00837,37.93634 25.00552,20.61943 24.60775,20.02383 24.00882,35.94858 -0.35186,9.3558 1.05469,16.37725 3.63524,18.14712 2.66111,1.82512 3.09054,-3.11592 1.16761,-13.43495 l -3.04153,-16.32176 10.90003,6.98585 c 8.52715,5.4651 11.15604,9.95447 12.07613,20.62249 0.64688,7.50015 1.20073,9.72296 1.2308,4.93955 0.0771,-12.26711 3.02049,-11.59839 21.39022,4.8597 8.90983,7.98264 18.87492,16.54995 22.14463,19.03847 5.00864,3.81197 4.86454,4.67049 -0.9147,5.45073 -3.77278,0.50938 -17.15668,-0.31562 -29.74193,-1.83323 z M 296.8025,198.17745 c -1.75742,-4.47505 -1.9776,-1.41389 -0.48934,6.80264 1.48829,8.21651 2.92616,11.87796 3.1953,8.1365 0.2691,-3.74145 -0.94858,-10.46405 -2.70599,-14.93913 z m -31.63929,-26.5562 c -2.04328,-4.9272 -2.80671,-3.81407 -2.94368,4.29205 -0.11942,7.06759 0.85782,9.42414 2.75873,6.65247 1.61904,-2.36063 1.70225,-7.28564 0.18495,-10.94452 z m -25.11624,-15.37418 c -3.64083,-4.21406 -4.08503,-1.98749 -1.87042,9.37565 2.54018,13.0339 3.1388,13.72676 4.77473,5.5265 1.17917,-5.91069 0.10581,-11.41811 -2.90429,-14.90217 z m 138.87292,88.81556 c -14.27847,-12.9061 -16.47286,-17.59711 -7.45456,-15.93579 3.55803,0.65543 4.93917,-0.24921 3.23782,-2.12074 -1.63187,-1.79502 -5.68707,-2.75684 -9.01159,-2.13732 -5.81935,1.08443 -35.33288,-18.43142 -36.38124,-24.05707 -0.28142,-1.50964 4.26181,-2.76909 10.0958,-2.7987 5.83403,-0.0296 9.43424,-0.93648 8.00052,-2.01533 -1.43369,-1.07889 -7.32005,-1.48076 -13.08069,-0.89309 -7.14545,0.7289 -15.09199,-3.00817 -25.00591,-11.75971 -7.99259,-7.05551 -19.12695,-16.31537 -24.74303,-20.57749 -5.61605,-4.26213 -9.79778,-9.99804 -9.29265,-12.74651 0.50513,-2.74845 -1.1376,-4.66866 -3.65043,-4.26713 -2.51287,0.40155 -8.53268,-3.01225 -13.37732,-7.58621 -7.28276,-6.87577 -8.02178,-9.04744 -4.26676,-12.53741 3.41465,-3.17362 2.55476,-3.86551 -3.46507,-2.7882 -4.40373,0.78819 -9.52092,-1.03307 -11.37149,-4.04711 -5.05715,-8.23654 -4.74046,-8.56631 6.30558,-6.56667 5.90007,1.06813 9.05062,0.56613 7.45607,-1.18788 -1.51876,-1.67068 -7.9647,-3.20398 -14.32428,-3.40737 -11.35026,-0.36296 -21.03364,-5.73252 -13.0283,-7.22432 5.75535,-1.072474 45.1073,10.57809 54.34521,16.0895 6.02228,3.59295 6.80171,5.51404 3.57009,8.79962 -2.73632,2.78204 -1.625,2.97252 3.28675,0.56339 5.7924,-2.84109 14.66499,1.16865 40.43375,18.27305 36.42954,24.18064 48.32234,37.44108 55.68429,62.08781 2.70376,9.05174 6.09349,19.71305 7.53274,23.69177 1.4392,3.97876 2.2763,11.57722 1.86011,16.88547 l -0.75674,9.65142 -12.59882,-11.38792 z m -15.34175,-46.82594 c -0.38244,-2.0522 -3.6289,-3.15799 -7.21443,-2.45733 -5.57116,1.08882 -5.60727,1.64821 -0.24813,3.84795 7.88971,3.2385 8.31053,3.16008 7.46256,-1.39062 z m -45.43623,-26.28067 c -1.65073,-1.81587 -6.64899,-2.44864 -11.10719,-1.40621 -7.54578,1.76441 -7.42286,1.98167 1.77848,3.14479 5.4367,0.68701 10.43495,1.31979 11.10721,1.40619 0.67228,0.0863 -0.12827,-1.32863 -1.77848,-3.14478 z m 19.78667,-2.15894 c -1.47092,-1.00882 -4.71383,-0.54168 -7.20648,1.03804 -2.75461,1.74581 -1.7057,2.4652 2.67437,1.83425 3.96358,-0.57089 6.00304,-1.86353 4.53216,-2.87235 z m -26.94153,-25.87717 c -0.1503,-0.80654 -3.73052,-0.82217 -7.95604,-0.0348 -4.22551,0.78741 -6.39114,2.85248 -4.81247,4.58902 2.59142,2.85056 13.42809,-1.01466 12.76851,-4.55426 z m -34.87478,-21.40095 c -0.31869,-1.71018 -3.09806,-2.64006 -6.17634,-2.06643 -3.0783,0.57363 -5.33619,2.44218 -5.01749,4.15237 0.31869,1.71016 3.09806,2.64005 6.17633,2.06642 3.07831,-0.57363 5.33619,-2.44218 5.0175,-4.15236 z"
       id="path8114"
       inkscape:connector-curvature="0" />
  </g>
  <text
     xml:space="preserve"
     style="font-style:normal;font-variant:normal;font-weight:normal;font-stretch:normal;font-size:20px;line-height:125%;font-family:FontAwesome;-inkscape-font-specification:'FontAwesome, Normal';text-align:start;letter-spacing:0px;word-spacing:0px;writing-mode:lr-tb;text-anchor:start;fill:#ffffff;fill-opacity:1;stroke:none;stroke-width:1px;stroke-linecap:butt;stroke-linejoin:miter;stroke-opacity:1"
     x="75.903076"
     y="158.73535"
     id="text5489"
     sodipodi:linespacing="125%"><tspan
       sodipodi:role="line"
       id="tspan5491"
       x="75.903076"
       y="158.73535"
       style="font-style:normal;font-variant:normal;font-weight:normal;font-stretch:normal;font-size:62.5px;font-family:'Noto Serif';-inkscape-font-specification:'Noto Serif';fill:#ffffff;fill-opacity:1">Chapter 1</tspan></text>
</svg>
