<?xml version="1.0" encoding="UTF-8" standalone="no"?>
<svg
   xmlns:dc="http://purl.org/dc/elements/1.1/"
   xmlns:cc="http://creativecommons.org/ns#"
   xmlns:rdf="http://www.w3.org/1999/02/22-rdf-syntax-ns#"
   xmlns:svg="http://www.w3.org/2000/svg"
   xmlns="http://www.w3.org/2000/svg"
   version="1.1"
   id="svg2"
   viewBox="0 0 300 150"
   height="150"
   width="300">
  <defs
     id="defs4" />
  <metadata
     id="metadata7">
    <rdf:RDF>
      <cc:Work
         rdf:about="">
        <dc:format>image/svg+xml</dc:format>
        <dc:type
           rdf:resource="http://purl.org/dc/dcmitype/StillImage" />
        <dc:title></dc:title>
      </cc:Work>
    </rdf:RDF>
  </metadata>
  <g
     transform="translate(-132.14323,-309.68077)"
     id="layer1">
    <flowRoot
       style="font-style:normal;font-variant:normal;font-weight:normal;font-stretch:normal;font-size:20px;line-height:125%;font-family:FontAwesome;-inkscape-font-specification:FontAwesome;letter-spacing:0px;word-spacing:0px;fill:#000000;fill-opacity:1;stroke:none;stroke-width:1px;stroke-linecap:butt;stroke-linejoin:miter;stroke-opacity:1"
       id="flowRoot4136"
       xml:space="preserve"><flowRegion
         id="flowRegion4138"><rect
           style="font-style:normal;font-variant:normal;font-weight:normal;font-stretch:normal;font-family:FontAwesome;-inkscape-font-specification:FontAwesome"
           y="152.3622"
           x="294.28571"
           height="114.28571"
           width="54.285713"
           id="rect4140" /></flowRegion><flowPara
         id="flowPara4142" /></flowRoot>    <text
       id="text4144"
       y="160.13007"
       x="305.625"
       style="font-style:normal;font-variant:normal;font-weight:normal;font-stretch:normal;font-size:20px;line-height:125%;font-family:FontAwesome;-inkscape-font-specification:FontAwesome;letter-spacing:0px;word-spacing:0px;fill:#000000;fill-opacity:1;stroke:none;stroke-width:1px;stroke-linecap:butt;stroke-linejoin:miter;stroke-opacity:1"
       xml:space="preserve"><tspan
         y="160.13007"
         x="305.625"
         id="tspan4146" /></text>
    <text
       id="text4148"
       y="144.14792"
       x="311.33929"
       style="font-style:normal;font-weight:normal;font-size:20px;line-height:125%;font-family:sans-serif;letter-spacing:0px;word-spacing:0px;fill:#000000;fill-opacity:1;stroke:none;stroke-width:1px;stroke-linecap:butt;stroke-linejoin:miter;stroke-opacity:1"
       xml:space="preserve"><tspan
         y="144.14792"
         x="311.33929"
         id="tspan4150" /></text>
    <text
       id="text4152"
       y="128.34435"
       x="316.96429"
       style="font-style:normal;font-weight:normal;font-size:20px;line-height:125%;font-family:sans-serif;letter-spacing:0px;word-spacing:0px;fill:#000000;fill-opacity:1;stroke:none;stroke-width:1px;stroke-linecap:butt;stroke-linejoin:miter;stroke-opacity:1"
       xml:space="preserve"><tspan
         y="128.34435"
         x="316.96429"
         id="tspan4154" /></text>
    <g
       transform="matrix(1.3457687,0,0,1.3457687,266.62732,432.31666)"
       id="g4173">
      <g
         transform="matrix(0.49790359,0,0,0.49790359,70.951507,-36.29551)"
         id="g4181">
        <g
           id="g4187">
          <path
             id="path4177"
             d="m 332.15217,81.690758 c -34.73175,-1.71237 -67.47366,-12.93274 -93.91037,-32.18226 -9.92732,-7.22845 -15.44164,-12.16943 -15.44164,-13.83613 0,-2.79379 1.8176,-2.45732 10.03478,1.85764 25.91048,13.60595 53.08627,21.90338 84.50587,25.80173 10.33831,1.28271 41.10179,1.09228 51.68222,-0.31993 18.99297,-2.53505 38.01137,-7.25617 53.96474,-13.39618 4.8952,-1.88404 9.4601,-3.42552 10.14422,-3.42552 1.57803,0 3.33003,1.90697 3.33003,3.62458 0,1.80328 -3.61778,4.76133 -11.74231,9.60098 -16.39562,9.76662 -38.28193,17.23017 -60.10858,20.49791 -6.60224,0.98844 -23.20212,2.27113 -26.78652,2.06983 -1.03994,-0.0584 -3.59254,-0.1901 -5.67244,-0.29265 z m 106.43892,-10.57799 c -0.19384,-0.50516 0.80657,-3.91908 2.22314,-7.5865 4.469,-11.56996 6.04397,-19.44029 4.47642,-22.36928 -0.34399,-0.64275 -1.69119,-1.53033 -2.99379,-1.97241 -2.82278,-0.95798 -14.45773,-0.94168 -22.20004,0.0311 -4.49846,0.56521 -5.48163,0.52421 -6.26721,-0.26137 -0.82216,-0.82216 -0.76452,-1.10977 0.49003,-2.44517 2.00228,-2.13133 9.20576,-5.30915 14.67509,-6.47393 6.24046,-1.32899 18.12109,-1.336 22.67078,-0.0134 5.30113,1.54108 5.83902,2.43871 5.43327,9.06704 -0.6345,10.36502 -5.4365,21.92879 -12.03573,28.98338 -3.62906,3.87948 -5.76495,4.88291 -6.47196,3.04049 z m -83.59416,-44.51505 c -226.56309,403.694022 -113.28155,201.847012 0,0 z"
             style="fill:#fd9e0e" />
          <path
             id="path4175"
             d="m 496.87716,32.463744 c -10.27928,-2.49729 -17.48503,-9.89665 -21.5468,-22.12574 -1.53257,-4.6142296 -1.67778,-5.9247796 -1.7109,-15.4416296 -0.0404,-11.6090704 0.67357,-15.4784204 4.18673,-22.6897604 5.11215,-10.49355 14.44268,-16.38705 25.9438,-16.38705 16.58208,0 27.83782,11.36039 30.70865,30.99417 0.88459,6.0497604 0.44207,15.6237104 -0.97079,21.0031904 -4.78591,18.2223296 -20.23754,28.6245796 -36.61069,24.6468196 z m 11.71642,-15.03733 c 4.94135,-3.32997 6.5234,-9.9223696 6.08742,-25.3662596 -0.32996,-11.6886304 -1.19356,-15.8779404 -3.94792,-19.1513104 -4.70863,-5.59589 -13.22008,-3.18844 -15.75969,4.45761 -1.4571,4.38693 -2.07737,13.7998104 -1.4855,22.54322038 0.62788,9.27524002 1.88761,13.46074962 4.98297,16.55610962 2.04412,2.04411 2.77937,2.38088 5.19805,2.38088 1.87907,0 3.51894,-0.47293 4.92467,-1.42025 z m -336.38543,14.15933 c -6.4761,-2.3171 -10.15267,-6.47814 -11.96407,-13.54061 -2.296,-8.9518996 0.26161,-18.02076962 6.7857,-24.0609196 5.2137,-4.8269704 11.58173,-7.0224404 24.82236,-8.5578904 3.46649,-0.402 6.69087,-1.05092 7.16528,-1.44206 1.22538,-1.01028 0.62572,-8.47237 -0.86347,-10.74517 -1.61084,-2.45845 -4.52865,-3.79537 -8.20897,-3.76131 -5.05254,0.0468 -8.63471,2.51397 -10.60938,7.30716 -0.53755,1.3048 -1.4351,2.54802 -1.99456,2.76271 -1.43259,0.54973 -13.56788,-0.91048 -14.58552,-1.75505 -2.25849,-1.87437 0.46312,-9.32555 5.16549,-14.14201 3.65628,-3.74499 7.70728,-5.91345 14.10917,-7.55251 5.06876,-1.29774 17.02778,-0.97993 21.89225,0.58178 7.22242,2.31872 12.65,7.84511 14.03153,14.28697 0.3934,1.83437 0.6911,10.35225 0.69974,20.0213604 0.008,9.25579998 0.26803,17.91898 0.57726,19.2514996 0.30922,1.33252 1.57875,4.06968 2.82118,6.08257 1.24243,2.01289 2.25896,4.2119 2.25896,4.88666 0,1.59487 -10.92664,10.87343 -12.80479,10.87343 -0.86253,0 -2.78391,-1.50621 -5.22596,-4.09676 -2.12406,-2.25322 -4.04527,-4.09676 -4.26937,-4.09676 -0.2241,0 -1.89587,1.21234 -3.71506,2.69409 -5.2197,4.25151 -9.13392,5.6565 -16.52811,5.93271 -4.97892,0.18598 -6.98679,-0.009 -9.55966,-0.92989 z m 20.2891,-13.84318 c 2.06171,-1.11047 3.94097,-3.46073 5.423,-6.78214 1.11467,-2.4980996 1.41214,-4.3728296 1.4489,-9.1310696 l 0.0463,-5.98758 -4.46011,0.0797 c -6.95527,0.12429 -12.59558,3.08273998 -14.52925,7.62087 -1.17663,2.76144 -1.09147,8.6472496 0.16338,11.2916596 1.94807,4.10525 7.27181,5.4056 11.90783,2.90855 z m 160.07399,14.13127 c -5.91422,-1.97093 -9.38232,-4.96986 -11.7853,-10.19095 -1.23478,-2.68288 -1.45039,-4.18198 -1.45039,-10.08433 0,-6.1964296 0.17879,-7.3144196 1.68293,-10.5233196 2.04812,-4.36939 6.2458,-8.69573 10.55666,-10.88021 3.9221,-1.9874704 11.49717,-3.8040004 19.90423,-4.7730804 3.46649,-0.39958 6.69229,-1.04772 7.16844,-1.4403 0.64572,-0.5324 0.77131,-1.72495 0.49418,-4.6927 -0.63694,-6.82081 -3.53106,-9.78349 -9.55709,-9.78349 -4.82187,0 -8.085,2.03219 -10.19804,6.35109 -0.91535,1.8709 -2.07713,3.56007 -2.58174,3.75371 -0.50461,0.19364 -3.93264,0.0248 -7.61785,-0.3752 -9.08277,-0.98585 -9.4602,-1.60467 -5.91463,-9.6972 4.21449,-9.61925 15.00709,-14.76206 29.7824,-14.19168 12.20318,0.47108 18.75378,3.7838 22.68976,11.47447 l 2.20595,4.31029 0.31513,20.2338104 0.31514,20.2338096 1.89081,3.05378 c 1.03995,1.67958 2.29276,3.69136 2.78401,4.47062 0.49126,0.77927 0.72337,1.85942 0.51579,2.40035 -0.70148,1.82804 -11.26398,10.55905 -12.774,10.55905 -0.97187,0 -2.67103,-1.33923 -5.19781,-4.09676 -2.06466,-2.25322 -3.95729,-4.09676 -4.20582,-4.09676 -0.24854,0 -2.05876,1.26154 -4.02272,2.80343 -5.56147,4.36625 -8.71259,5.49611 -16.11681,5.77882 -4.2289,0.16146 -7.20748,-0.0388 -8.88323,-0.59725 z m 20.75011,-15.15315 c 3.61087,-2.75414 6.02215,-9.6200096 6.03275,-17.17767962 0.005,-3.56766998 -1.03654,-4.28607998 -5.52472,-3.81064998 -9.78983,1.03703 -15.29632,6.08222 -15.25321,13.97538 0.0123,2.2442896 1.87497,6.5779796 3.35314,7.8012196 2.72742,2.25706 7.86555,1.90153 11.39204,-0.78827 z m -137.19267,14.70883 c -1.0298,-0.62586 -1.10298,-3.06413 -1.10298,-36.7535396 0,-27.2243604 0.18569,-36.2689004 0.75633,-36.8395404 0.49844,-0.49844 3.16936,-0.75632 7.83337,-0.75632 8.50591,0 9.05789,0.32921 9.05789,5.40232 0,1.88181 0.27,3.42147 0.59999,3.42147 0.33,0 1.43981,-1.22062 2.46624,-2.71249 3.71412,-5.39829 8.90369,-7.68005 16.47097,-7.24199 7.12021,0.41218 10.34725,2.55515 15.60041,10.35968 0.76254,1.1329 0.81313,1.13001 1.57567,-0.0901 0.43332,-0.6933 2.36723,-2.85149 4.29759,-4.79599 4.51861,-4.55166 8.15777,-5.87826 15.00343,-5.46925 5.35718,0.32008 9.08605,1.84135 12.5829,5.13344 5.39983,5.08366 5.89031,8.80437 5.64762,42.8417204 -0.18007,25.2550696 -0.23949,26.4026796 -1.41142,27.2592196 -0.87579,0.64009 -3.13939,0.89417 -7.96613,0.89417 -10.31071,0 -9.34997,2.82138 -9.5506,-28.0470596 -0.16788,-25.8290304 -0.16864,-25.8420604 -1.61777,-27.8737304 -3.88441,-5.44592 -13.04868,-3.26637 -15.37113,3.65575 -0.4759,1.4184 -0.81347,10.5446504 -0.98456,26.6167104 l -0.26035,24.4581996 -1.68168,0.64325 c -1.9296,0.73809 -14.86627,0.49646 -15.65432,-0.29239 -0.28797,-0.28827 -0.66541,-11.91677 -0.83873,-25.8411096 -0.27351,-21.9728504 -0.45582,-25.6273504 -1.38018,-27.6666904 -1.4724,-3.24839 -4.49408,-5.04303 -7.90722,-4.69625 -3.64321,0.37016 -5.70663,1.88352 -7.31617,5.36588 -1.29931,2.81116 -1.37302,4.02757 -1.67429,27.6274504 -0.17332,13.5777496 -0.55069,24.9226296 -0.83859,25.2108396 -0.80239,0.80325 -15.05373,0.96579 -16.33629,0.18631 z m 310.52891,-0.24149 c -1.18219,-0.86419 -1.22873,-2.07012 -1.3802,-35.7678796 -0.12265,-27.2878804 0.0182,-35.2162804 0.64758,-36.4492204 0.77732,-1.52276 1.04415,-1.58168 7.94493,-1.75452 4.72489,-0.11833 7.43765,0.0677 8.01865,0.54988 0.54851,0.45522 0.89468,2.05989 0.92235,4.2756 0.0243,1.95079 0.26353,4.10802 0.53146,4.79386 0.43016,1.10106 0.692,0.91669 2.23768,-1.57568 2.42684,-3.91321 4.63321,-6.17161 7.58603,-7.76497 2.10322,-1.13491 3.56575,-1.36039 8.82379,-1.36039 5.32288,0 6.71363,0.21964 8.94589,1.41282 3.80995,2.03648 6.88548,5.47673 8.52932,9.54078 1.41059,3.4874 1.43582,4.01123 1.61891,33.60069038 l 0.18598,30.05804962 -1.34623,0.72049 c -2.07475,1.11037 -15.60122,0.57691 -16.37265,-0.64572 -0.34668,-0.54946 -0.60055,-10.63309 -0.60616,-24.0768396 -0.0105,-25.0254804 -0.34314,-28.4388704 -3.06935,-31.4897504 -3.49503,-3.91126 -10.09418,-2.77514 -12.97113,2.23314 -2.54507,4.43051 -2.8773,8.00467 -2.8773,30.9541204 l 0,21.6775796 -1.40078,0.98115 c -1.91069,1.3383 -14.16562,1.40492 -15.96877,0.0868 z M 413.1823,29.141094 c -0.23111,-0.2311 -0.42019,-4.04315 -0.42019,-8.47124 l 0,-8.05105 3.37376,-4.9220196 c 1.85556,-2.70712 7.8562,-11.30352 13.33473,-19.1031204 5.47854,-7.79961 9.98731,-14.74835 10.0195,-15.44164 0.0563,-1.21211 -0.39636,-1.26714 -11.77997,-1.4321 l -11.83849,-0.17155 -0.66835,-1.71926 c -0.93918,-2.41599 -0.36995,-11.44745 0.76688,-12.16711 1.43017,-0.90536 47.43429,-0.73938 48.34811,0.17443 0.46382,0.46382 0.75632,2.73177 0.75632,5.86418 0,6.07648 0.95477,4.35408 -14.88643,26.8550004 -6.06959,8.62127998 -10.85886,15.96105 -10.64281,16.31061 0.21604,0.34956 1.72327,0.64546 3.34939,0.65756 7.3124,0.0544 17.98912,3.0663696 21.57999,6.0878796 l 1.90156,1.60007 -0.17814,6.63494 c -0.20626,7.68191 -0.79295,8.63406 -4.41645,7.16755 -6.57082,-2.65935 -11.60315,-4.01391 -17.26916,-4.64837 -7.79536,-0.87291 -16.32647,0.29321 -24.00984,3.2819 -4.96241,1.93029 -6.55798,2.25578 -7.32041,1.49334 z"
             style="fill:#0b0b0b" />
        </g>
      </g>
    </g>
    <path
       id="path4204"
       d="m 75.454328,1342.6937 c -0.986164,-0.2585 -2.172223,-2.0951 -2.758151,-4.2711 -0.695934,-2.5845 -0.944595,-100.7071 -0.769829,-303.7769 0.217301,-252.49185 0.475336,-300.22091 1.630597,-301.61287 1.27211,-1.53276 28.474695,-1.65365 372.095015,-1.65365 351.83436,0 370.79854,0.0892 372.21378,1.75 1.27233,1.49314 16.19021,26.03675 26.41949,43.46661 1.7054,2.90586 9.53618,15.85839 17.40175,28.78339 7.86556,12.925 19.60956,32.33659 26.09779,43.13687 6.48823,10.80028 16.16238,26.77528 21.49811,35.5 5.33574,8.72472 12.49617,20.58813 15.91208,26.36313 3.4159,5.775 9.50756,15.9 13.53702,22.5 9.39018,15.38051 34.81303,57.36597 50.07996,82.70632 6.52991,10.8384 11.87256,20.6699 11.87256,21.8477 0,1.1777 -4.80553,10.0849 -10.67895,19.7937 -21.43924,35.4391 -89.79618,149.0072 -97.2989,161.6522 -9.4192,15.8751 -16.63005,27.8379 -19.59008,32.5 -1.22221,1.925 -7.7051,12.725 -14.40642,24 -6.70131,11.275 -13.20821,22.075 -14.45977,24 -4.44097,6.8306 -21.99915,36.5212 -23.79174,40.2315 l -1.82082,3.7686 -370.72666,-0.116 c -203.89966,-0.064 -371.505237,-0.32 -372.456832,-0.5695 z M 410.42872,1139.8792 c 0.36073,-19.202 -0.95949,-17.5 13.57483,-17.5 8.21852,0 12.6779,-0.397 13.48095,-1.2 1.5927,-1.5927 1.5927,-15.0073 0,-16.6 -0.7954,-0.7954 -5.11111,-1.2 -12.8,-1.2 -7.68889,0 -12.0046,-0.4046 -12.8,-1.2 -0.66,-0.66 -1.2,-3.27 -1.2,-5.8 0,-2.53 0.54,-5.14 1.2,-5.8 0.82897,-0.829 5.94031,-1.2 16.53138,-1.2 17.77582,0 16.78773,0.6388 16.72512,-10.8123 -0.0289,-5.2847 -0.44434,-7.568 -1.49824,-8.2347 -0.80204,-0.5073 -13.01362,-0.9293 -27.13683,-0.9377 -22.0246,-0.013 -25.90218,0.2083 -27.25,1.5561 -1.37414,1.3742 -1.57143,6.4043 -1.57143,40.0658 0,25.0558 0.36781,39.1815 1.05359,40.4629 0.95885,1.7916 1.97044,1.9431 11.25,1.6843 l 10.19641,-0.2844 0.24422,-13 z m 60.03783,1.2139 c 0.27371,-11.4377 0.35498,-11.8192 2.75,-12.9105 4.20688,-1.9168 6.68338,0.2332 13.46288,11.688 3.47779,5.8762 6.95881,11.3195 7.73559,12.0963 2.05403,2.054 24.26948,2.0497 24.26948,-0 0,-0.7794 -3.375,-7.2251 -7.5,-14.3239 -4.125,-7.0987 -7.5,-13.8075 -7.5,-14.9086 0,-1.101 1.17354,-3.0928 2.60787,-4.4262 1.43433,-1.3333 3.71939,-4.8993 5.07791,-7.9243 6.62799,-14.7584 -2.12449,-34.958 -17.11728,-39.5045 -5.90244,-1.7899 -41.46461,-2.1566 -44.63424,-0.4603 -1.86208,0.9968 -1.93426,2.5051 -1.93426,40.4185 0,21.6606 0.27878,40.1095 0.61951,40.9974 0.52628,1.3715 2.21916,1.5719 11.25,1.3318 l 10.63049,-0.2826 0.28205,-11.7861 z m 1.41795,-34.9139 c -1.58053,-1.5805 -1.58053,-14.0195 0,-15.6 1.57685,-1.5769 11.61437,-1.5161 14.8,0.09 4.39448,2.215 5.25223,11.3153 1.42707,15.1405 -1.93147,1.9315 -14.3817,2.2153 -16.22707,0.3699 z m 99.17262,43.4064 c 11.51442,-5.3883 18.84133,-14.2517 22.08938,-26.7218 2.18853,-8.4024 1.92597,-16.1867 -0.83975,-24.896 -7.70658,-24.2682 -32.22012,-34.8972 -54.52056,-23.6399 -7.26507,3.6673 -14.40014,11.3492 -18.41671,19.828 -2.91012,6.1431 -3.17899,7.5431 -3.11563,16.2233 0.0448,6.1348 0.67421,11.3026 1.77689,14.589 7.82652,23.3255 31.90219,34.5026 53.02638,24.6174 z M 548.839,1131.7411 c -6.4246,-3.2727 -11.06036,-14.8356 -9.66863,-24.1163 0.87257,-5.8186 4.79357,-13.728 7.77186,-15.6771 7.36537,-4.8202 17.37892,-1.6335 21.71523,6.9107 3.62507,7.1428 3.63774,19.0609 0.027,25.4322 -1.375,2.4263 -3.68609,5.2883 -5.13576,6.36 -3.66407,2.7087 -10.53328,3.2179 -14.70974,1.0905 z m 73.8455,2.9684 c 0.275,-9.9934 0.80154,-18.4699 1.1701,-18.8368 0.95762,-0.9533 3.14799,2.76 7.37737,12.5065 4.81446,11.0948 5.67569,12.0036 11.35752,11.9847 2.52725,-0.01 5.12398,-0.3518 5.7705,-0.763 0.64652,-0.4112 3.13412,-5.0168 5.528,-10.2347 6.20575,-13.5264 6.8296,-14.5444 7.88868,-12.8721 0.48246,0.7618 0.8841,8.8326 0.89252,17.9351 0.0107,11.5206 0.37998,16.9147 1.21531,17.75 1.62796,1.6279 18.97204,1.6279 20.6,0 1.72365,-1.7237 1.72365,-79.8764 0,-81.6 -1.69189,-1.6919 -22.19262,-1.6484 -23.56563,0.05 -0.55579,0.6875 -4.10911,8 -7.89627,16.25 -8.55576,18.6379 -8.73475,18.9455 -10.60795,18.2267 -1.53548,-0.5892 -2.98281,-3.4132 -11.88964,-23.1982 -2.71653,-6.0343 -5.47945,-11.3149 -6.13983,-11.7347 -1.80374,-1.1465 -20.5443,-0.9479 -22.76642,0.2414 -1.86163,0.9963 -1.93426,2.5008 -1.93426,40.0657 0,25.4315 0.36709,39.7165 1.05359,40.9992 0.95885,1.7916 1.97044,1.9431 11.25,1.6843 l 10.19641,-0.2844 0.5,-18.1697 z m 89.5,8.1697 0,-10 -7.91317,-0.295 c -5.65526,-0.2108 -8.14758,0.074 -8.73469,1 -1.33256,2.1006 -1.01948,17.2276 0.38564,18.6328 0.82132,0.8213 3.76535,1.1409 8.75,0.95 l 7.51222,-0.2878 0,-10 z m -525.71648,6.2619 c 5.28587,-3.498 7.56607,-8.5328 6.99316,-15.4414 -0.78557,-9.4728 -7.18907,-15.3205 -16.77668,-15.3205 -6.58595,0 -10.97993,2.38 -14.81381,8.0238 -3.13778,4.6191 -2.80269,13.8973 0.67848,18.7861 5.31361,7.4623 15.95709,9.2209 23.91885,3.952 z m 99.54529,1.8741 c 9.53123,-3.9824 13.24711,-17.1098 7.30541,-25.8083 -3.41994,-5.0068 -8.08754,-7.0079 -15.37345,-6.5912 -7.62661,0.4363 -10.83496,2.5192 -14.18678,9.2105 -2.24615,4.4841 -2.33994,5.2534 -1.26515,10.3775 2.35765,11.2402 13.17645,17.1333 23.51997,12.8115 z m 425.47119,-36.836 c 0.74729,-0.7473 1.2,-4.4445 1.2,-9.8 0,-5.3556 -0.45271,-9.0527 -1.2,-9.8 -0.67645,-0.6765 -3.91746,-1.2 -7.42857,-1.2 -8.49863,0 -9.37143,1.0245 -9.37143,11 0,9.9755 0.8728,11 9.37143,11 3.51111,0 6.75212,-0.5236 7.42857,-1.2 z m -421.8,-8.5516 c 5.04347,-2.5195 7.63927,-8.1714 6.10495,-13.2924 -0.6342,-2.1168 -2.32794,-4.7729 -3.76388,-5.9024 -2.56439,-2.0171 -3.63465,-2.0539 -60.22593,-2.0684 -44.44291,-0.011 -58.1867,-0.3039 -60.11514,-1.2795 -2.03453,-1.0293 -2.5,-2.004 -2.5,-5.2352 l 0,-3.9705 65.04499,-0.5 c 59.95659,-0.4609 65.25551,-0.638 67.73607,-2.2639 4.4869,-2.9411 5.48067,-5.642 7.62944,-20.7361 1.13531,-7.975 2.72499,-19 3.53263,-24.5 6.58119,-44.81799 6.70723,-46.97945 2.99659,-51.38929 -1.55985,-1.85378 -3.9325,-3.30015 -6.07204,-3.70153 -1.93146,-0.36235 -38.11329,-0.71515 -80.40406,-0.784 -66.91021,-0.10895 -77.08477,-0.31993 -78.37481,-1.6252 -0.81538,-0.825 -1.92406,-4.26678 -2.46373,-7.64839 -1.92773,-12.07926 -4.2744,-13.35161 -24.62508,-13.35161 -11.66621,0 -15.42463,0.34493 -18.2219,1.67232 -6.952286,3.29908 -8.185108,13.26966 -2.29705,18.57768 2.81554,2.53818 3.69547,2.75 11.42394,2.75 6.53574,0 8.81837,0.38407 10.40074,1.75 1.74558,1.50682 3.36266,9.80973 11.63695,59.75002 5.28531,31.9 10.21749,60.6033 10.9604,63.7852 1.54338,6.6103 3.61673,9.3625 8.01559,10.6397 1.69473,0.4921 31.65633,0.9346 66.58133,0.9833 58.56024,0.082 63.77227,-0.047 67,-1.6598 z m -124.80873,-57.109 c -0.71981,-0.4565 -2.04461,-4.9816 -2.94401,-10.0558 -1.42022,-8.0125 -1.44537,-9.3459 -0.19126,-10.1394 1.85727,-1.1751 27.99514,-1.1978 29.84603,-0.026 1.00559,0.6367 1.42973,3.2479 1.5,9.2347 0.14626,12.4617 0.87665,11.8497 -14.12065,11.8317 -7.02976,-0.01 -13.37031,-0.3888 -14.09011,-0.8453 z m 42.05873,0.2113 c -0.87989,-0.3642 -1.25,-3.4219 -1.25,-10.3271 0,-8.0226 0.28815,-9.9202 1.58179,-10.4166 0.86998,-0.3339 7.78988,-0.607 15.37755,-0.607 10.60164,0 14.06465,0.324 14.95707,1.3993 0.74951,0.9031 1.05888,4.715 0.87245,10.75 l -0.28886,9.3507 -15,0.184 c -8.25,0.1013 -15.5625,-0.049 -16.25,-0.3333 z m 44.95,-0.5507 c -0.74729,-0.7473 -1.2,-4.4445 -1.2,-9.8 0,-5.3556 0.45271,-9.0527 1.2,-9.8 1.89259,-1.8926 34.16743,-1.6671 35.75834,0.2498 0.93792,1.1301 0.9335,3.1696 -0.0201,9.25 -1.90141,12.1243 -0.53228,11.3002 -18.77342,11.3002 -10.92819,0 -16.13298,-0.3682 -16.96482,-1.2 z m -93.11724,-34.2003 c -1.76093,-2.1218 -4.07164,-17.83072 -2.84625,-19.34972 1.47393,-1.8271 32.68303,-1.76054 35.19336,0.0751 2.21155,1.61713 3.34733,13.66542 1.68977,17.92492 l -1.07014,2.75 -15.9023,0 c -12.41211,0 -16.15737,-0.3073 -17.06444,-1.4003 z m 48.16724,0.751 c -0.87989,-0.3642 -1.25,-3.4219 -1.25,-10.3271 0,-8.02262 0.28815,-9.92022 1.58179,-10.41663 0.86998,-0.33385 7.78988,-0.60699 15.37755,-0.60699 10.60164,0 14.06465,0.32398 14.95707,1.39928 0.74951,0.90311 1.05888,4.71502 0.87245,10.75004 l -0.28886,9.3507 -15,0.184 c -8.25,0.1013 -15.5625,-0.049 -16.25,-0.3333 z m 44.97125,-0.5295 c -1.6406,-1.6406 -1.6583,-17.98417 -0.0213,-19.62122 1.46915,-1.46915 37.49818,-1.67633 39.78765,-0.2288 1.77143,1.12001 1.58854,11.11092 -0.30951,16.90862 l -1.18521,3.6202 -18.52521,0.2712 c -13.56538,0.1987 -18.85219,-0.056 -19.74647,-0.95 z m 194.80395,25.484 c 4.78016,-2.3587 7.21591,-4.3216 9.3064,-7.5 2.56055,-3.8931 2.78936,-4.9422 2.39032,-10.9601 -0.5104,-7.6974 -2.90488,-12.3499 -8.21837,-15.9685 -3.96053,-2.6971 -4.38905,-4.7653 -1.52451,-7.35765 2.82009,-2.55215 6.02266,-11.77249 6.01119,-17.30648 -0.0106,-5.12724 -3.42218,-13.57212 -6.63509,-16.42435 -4.86089,-4.31521 -8.18186,-4.78814 -33.62302,-4.78814 -17.59165,0 -24.66454,0.33242 -25.53212,1.2 -1.76686,1.76686 -1.71904,79.87452 0.05,81.66562 0.95915,0.9711 7.07277,1.1922 26.2752,0.95 l 25.02521,-0.3156 6.47479,-3.1948 z m -34.8252,-16.5052 c -1.55432,-1.5543 -1.55432,-9.0457 0,-10.6 0.74869,-0.7487 4.45892,-1.2 9.86514,-1.2 7.2521,0 9.09482,0.338 11.3,2.0726 1.51378,1.1907 2.63486,3.0745 2.63486,4.4274 0,1.3529 -1.12108,3.2367 -2.63486,4.4274 -2.20518,1.7346 -4.0479,2.0726 -11.3,2.0726 -5.40622,0 -9.11645,-0.4513 -9.86514,-1.2 z m 0,-31.00002 c -1.25544,-1.25544 -1.63812,-8.49471 -0.59301,-11.21821 0.48621,-1.26704 2.26287,-1.58179 8.92857,-1.58179 10.4069,0 12.23065,1.34956 11.48665,8.5 -0.44683,4.29429 -2.85325,5.5 -10.9772,5.5 -4.61279,0 -8.12096,-0.47595 -8.84501,-1.2 z m 104.33832,47.25572 c 7.63826,-3.7603 13.06422,-9.9046 16.60523,-18.8036 2.1303,-5.3538 2.31371,-7.5008 2.64843,-31.00212 0.2942,-20.6571 0.61122,-25.25 1.74285,-25.25 0.80439,0 6.72019,10.56633 14.13679,25.25 l 12.75355,25.25002 0.53742,14 0.53741,14 10.5,0 10.5,0 0.5,-14.5975 c 0.2972,-8.6767 0.96165,-15.1664 1.63816,-16 1.65585,-2.0404 25.36184,-49.35605 25.36184,-50.62057 0,-1.7843 -2.73882,-2.28195 -12.55873,-2.28195 -11.12579,0 -10.06745,-0.99671 -16.98945,16 -2.5759,6.325 -5.31788,12.7375 -6.09331,14.25 -2.64291,5.15508 -2.79141,4.9356 -11.98651,-17.71552 -2.44826,-6.03103 -4.98503,-11.29532 -5.63725,-11.69842 -1.89995,-1.17423 -45.02816,-0.83744 -46.47451,0.36292 -0.94877,0.78742 -1.26567,7.00897 -1.2822,25.17346 -0.0194,21.31668 -0.23704,24.59358 -1.86808,28.12758 -2.93704,6.3637 -6.44757,9 -11.9845,9 -5.88167,0 -9.39231,-2.205 -12.36229,-7.7646 -2.1421,-4.0099 -2.28018,-5.5395 -2.59348,-28.73009 -0.20287,-15.01659 -0.73404,-24.98041 -1.37275,-25.75 -1.57128,-1.89328 -19.16505,-1.72163 -20.76199,0.20256 -0.9007,1.08528 -1.11021,8.04984 -0.81974,27.25 0.32646,21.57923 0.68284,26.60883 2.18186,30.79213 2.82951,7.8963 7.25954,14.0199 13.00532,17.9772 7.36127,5.0699 13.19133,6.5395 24.34291,6.1363 8.00769,-0.2896 10.12179,-0.7658 15.79302,-3.5578 z m 136.51896,-15.0557 c 0.30651,-10.175 0.64401,-18.691 0.75,-18.9243 0.41176,-0.9066 5.4232,4.6052 13.38315,14.7195 4.57026,5.8071 10.59007,13.2914 13.37735,16.6316 l 5.06778,6.0732 8.93222,0 8.93222,0 0.26146,-40.3837 c 0.18762,-28.9796 -0.0588,-40.76961 -0.87245,-41.75005 -1.57122,-1.89321 -19.17688,-1.92926 -20.74277,-0.0425 -0.68356,0.82363 -1.2021,8.09678 -1.37245,19.25 -0.19214,12.5801 -0.6134,17.9262 -1.41255,17.9262 -1.23277,0 -4.52503,-3.93923 -20.17755,-24.14273 -5.60023,-7.22851 -10.89437,-13.41601 -11.76475,-13.75 -2.85599,-1.09595 -14.97309,-0.65312 -16.21894,0.59273 -1.75176,1.75176 -1.72073,79.87925 0.0324,81.63245 0.85358,0.8536 4.31176,1.1456 11.25,0.95 l 10.0176,-0.2824 0.55728,-18.5 z m 110.1989,15.2609 c 11.7906,-5.5175 18.90382,-14.0991 22.21091,-26.7959 5.006,-19.21933 -3.67382,-40.52558 -19.7236,-48.41524 -8.60482,-4.22992 -17.36609,-5.67418 -24.62421,-4.05922 -5.85227,1.30216 -15.17071,5.67304 -18.6202,8.73393 -10.49206,9.31011 -16.15936,25.87874 -13.59256,39.73853 4.99705,26.9823 31.00711,41.7212 54.34966,30.7979 z m -21.85992,-17.6903 c -6.02458,-2.6225 -9.89934,-10.8781 -9.8895,-21.0706 0.009,-9.239 3.88822,-16.86542 9.98856,-19.63678 5.04634,-2.29254 6.98596,-2.28187 12.15869,0.0668 2.96036,1.34419 4.97179,3.27747 7,6.72804 2.52502,4.2958 2.84599,5.8005 2.84599,13.34184 0,6.9455 -0.43785,9.3895 -2.39411,13.3634 -3.66667,7.4486 -12.08431,10.5266 -19.70963,7.2073 z m 90.72649,19.4294 c 0.45901,-0.825 2.69319,-6.3413 4.96485,-12.2583 2.27165,-5.9171 4.57047,-11.0304 5.10847,-11.3629 1.65142,-1.0206 2.79225,0.9456 7.6892,13.2525 l 4.72256,11.8687 9.04416,0.2855 c 6.49389,0.205 9.34845,-0.081 10.12326,-1.0147 1.03307,-1.2448 5.20632,-11.7031 20.45904,-51.27082 9.47734,-24.58562 10.8902,-28.7332 10.30622,-30.25503 -0.38249,-0.99674 -3.09763,-1.24459 -11.27218,-1.02899 l -10.76833,0.28402 -1.74125,3.5 c -0.95769,1.925 -3.5815,9.575 -5.8307,17 -7.64413,25.23462 -10.06043,32.00002 -11.42898,32.00002 -0.75427,0 -2.26749,-2.7991 -3.47524,-6.4284 l -2.13922,-6.42838 6.13977,-18.63654 c 3.37688,-10.25009 5.89196,-19.28232 5.58908,-20.07162 -0.41778,-1.08873 -2.54934,-1.43138 -8.83208,-1.41977 -4.55476,0.008 -8.83131,0.36471 -9.50345,0.79176 -0.67214,0.42704 -2.38741,4.80765 -3.81172,9.73469 -3.9428,13.63914 -5.02759,13.75374 -8.4829,0.89612 -1.27575,-4.74719 -2.95103,-9.26274 -3.72285,-10.03456 -2.08216,-2.08216 -18.10182,-1.9803 -18.90787,0.12022 -0.32155,0.83794 2.23331,9.90332 5.67746,20.14529 l 6.26209,18.62175 -1.92967,6.03254 c -3.56767,11.1534 -4.09095,10.3304 -14.39288,-22.63398 -3.78419,-12.10878 -7.46293,-22.38553 -8.17497,-22.83723 -2.33133,-1.47895 -20.4105,-1.01967 -21.71457,0.55163 -0.91594,1.10364 0.25302,5.11003 5.47074,18.75 15.76233,41.20518 23.74344,61.43168 24.71379,62.63198 1.55681,1.9257 18.72762,1.2465 19.85817,-0.7855 z"
       style="fill:#0bb155" />
    <path
       id="rect4214"
       d="m 53.246667,1282.5378 731.227673,0 81.6431,202.857 -81.6431,202.857 -731.227673,0 z"
       style="opacity:1;fill:#82cdcd;fill-opacity:1;stroke:none;stroke-width:3.3661418;stroke-miterlimit:4;stroke-dasharray:none;stroke-opacity:1" />
    <flowRoot
       style="fill:black;stroke:none;stroke-opacity:1;stroke-width:1px;stroke-linejoin:miter;stroke-linecap:butt;fill-opacity:1;font-family:FontAwesome;font-style:normal;font-weight:normal;font-size:20px;line-height:125%;letter-spacing:0px;word-spacing:0px;-inkscape-font-specification:'FontAwesome, Normal';font-stretch:normal;font-variant:normal;text-anchor:start;text-align:start;writing-mode:lr"
       id="flowRoot4247"
       xml:space="preserve"><flowRegion
         id="flowRegion4249"><rect
           y="1132.8784"
           x="306.88434"
           height="28.284271"
           width="84.852814"
           id="rect4251" /></flowRegion><flowPara
         id="flowPara4253" /></flowRoot>    <flowRoot
       style="fill:black;stroke:none;stroke-opacity:1;stroke-width:1px;stroke-linejoin:miter;stroke-linecap:butt;fill-opacity:1;font-family:FontAwesome;font-style:normal;font-weight:normal;font-size:20px;line-height:125%;letter-spacing:0px;word-spacing:0px;-inkscape-font-specification:'FontAwesome, Normal';font-stretch:normal;font-variant:normal;text-anchor:start;text-align:start;writing-mode:lr"
       id="flowRoot4255"
       xml:space="preserve"><flowRegion
         id="flowRegion4257"><rect
           y="1138.5353"
           x="315.36963"
           height="24.04163"
           width="73.539108"
           id="rect4259" /></flowRegion><flowPara
         id="flowPara4261" /></flowRoot>    <g
       style="font-style:normal;font-variant:normal;font-weight:normal;font-stretch:normal;font-size:250px;line-height:125%;font-family:FontAwesome;-inkscape-font-specification:'FontAwesome, Normal';text-align:start;letter-spacing:0px;word-spacing:0px;writing-mode:lr-tb;text-anchor:start;fill:#000000;fill-opacity:1;stroke:none;stroke-width:1px;stroke-linecap:butt;stroke-linejoin:miter;stroke-opacity:1"
       id="text4210">
      <path
         d="m 347.24606,1556.8234 -240.23438,0 -4.88281,43.6663 c -0.27902,2.5112 0.55803,5.0223 2.23214,6.9754 1.67411,1.8137 4.18527,2.9297 6.69643,2.9297 l 232.14286,0 c 2.51116,0 5.02232,-1.116 6.69643,-2.9297 1.6741,-1.9531 2.51116,-4.4642 2.23214,-6.9754 l -4.88281,-43.6663 z m -12.97433,-117.048 c -0.55804,-4.4643 -4.32478,-7.952 -8.92858,-7.952 l -35.71428,0 0,17.8571 c 0,9.9052 -7.95201,17.8572 -17.85714,17.8572 -9.90514,0 -17.85715,-7.952 -17.85715,-17.8572 l 0,-17.8571 -53.57143,0 0,17.8571 c 0,9.9052 -7.95201,17.8572 -17.85714,17.8572 -9.90513,0 -17.85714,-7.952 -17.85714,-17.8572 l 0,-17.8571 -35.71429,0 c -4.60379,0 -8.37053,3.4877 -8.92857,7.952 l -11.99777,108.1194 238.28125,0 -11.99776,-108.1194 z m -53.57143,-25.8091 c 0,-29.5759 -23.99554,-53.5715 -53.57143,-53.5715 -29.57589,0 -53.57143,23.9956 -53.57143,53.5715 l 0,35.7142 c 0,4.8829 4.04576,8.9286 8.92857,8.9286 4.88281,0 8.92857,-4.0457 8.92857,-8.9286 l 0,-35.7142 c 0,-19.6708 16.04353,-35.7143 35.71429,-35.7143 19.67076,0 35.71428,16.0435 35.71428,35.7143 l 0,35.7142 c 0,4.8829 4.04576,8.9286 8.92858,8.9286 4.88281,0 8.92857,-4.0457 8.92857,-8.9286 l 0,-35.7142 z"
         id="path4334" />
    </g>
    <g
       style="font-style:normal;font-variant:normal;font-weight:bold;font-stretch:normal;font-size:87.5px;line-height:125%;font-family:'Trebuchet MS';-inkscape-font-specification:'Trebuchet MS Bold';text-align:start;letter-spacing:0px;word-spacing:0px;writing-mode:lr-tb;text-anchor:start;fill:#000000;fill-opacity:1;stroke:none;stroke-width:1px;stroke-linecap:butt;stroke-linejoin:miter;stroke-opacity:1"
       id="text4241">
      <path
         d="m 413.07242,1521.1858 -21.875,0 0,-71.4844 q 14.45312,-0.6836 20.26367,-0.6836 11.13281,0 17.38281,4.7852 6.29883,4.7363 6.29883,13.5742 0,8.4961 -8.98437,13.4277 13.33007,4.6387 13.33007,19.1407 0,9.7656 -7.37304,15.5273 -7.37305,5.7129 -19.04297,5.7129 z m -9.17969,-61.3281 0,17.1386 q 2.92969,0.1954 6.15234,0.1954 12.40235,0 12.40235,-9.3262 0,-8.252 -11.2793,-8.252 -2.97851,0 -7.27539,0.2442 z m 0,27.0507 0,23.6329 q 3.85742,0.3418 6.25,0.3418 8.49609,0 12.30469,-2.8809 3.85742,-2.8809 3.85742,-9.5703 0,-6.1035 -3.56445,-8.8867 -3.56446,-2.7832 -12.45117,-2.7832 -1.85547,0 -6.39649,0.1464 z"
         style="font-style:normal;font-variant:normal;font-weight:bold;font-stretch:normal;font-size:100px;line-height:125%;font-family:'Trebuchet MS';-inkscape-font-specification:'Trebuchet MS Bold';text-align:start;writing-mode:lr-tb;text-anchor:start"
         id="path4337" />
      <path
         d="m 450.57242,1449.6526 12.69531,0 0,48.4863 q 0,5.7617 3.51563,9.375 3.51562,3.6133 9.66796,3.6133 6.88477,0 10.69336,-3.5156 3.85743,-3.5645 3.85743,-9.7168 l 0,-48.2422 12.69531,0 0,49.2187 q 0,11.0352 -7.42188,17.2852 -7.37304,6.25 -19.72656,6.25 -12.45117,0 -19.23828,-6.1035 -6.73828,-6.1035 -6.73828,-17.4805 l 0,-49.1699 z"
         style="font-style:normal;font-variant:normal;font-weight:bold;font-stretch:normal;font-size:100px;line-height:125%;font-family:'Trebuchet MS';-inkscape-font-specification:'Trebuchet MS Bold';text-align:start;writing-mode:lr-tb;text-anchor:start"
         id="path4339" />
      <path
         d="m 548.08218,1491.8401 0,29.3457 -12.69531,0 0,-29.3457 -24.12109,-42.1875 13.47656,0 16.94336,30.5176 16.99219,-30.5176 13.42773,0 -24.02344,42.1875 z"
         style="font-style:normal;font-variant:normal;font-weight:bold;font-stretch:normal;font-size:100px;line-height:125%;font-family:'Trebuchet MS';-inkscape-font-specification:'Trebuchet MS Bold';text-align:start;writing-mode:lr-tb;text-anchor:start"
         id="path4341" />
      <path
         d="m 656.67593,1522.1624 -34.71679,-45.2637 0,44.3359 -12.20703,0 0,-71.582 6.10351,0 33.78906,43.1641 0,-43.1641 12.20704,0 0,72.5098 -5.17579,0 z"
         style="font-style:normal;font-variant:normal;font-weight:bold;font-stretch:normal;font-size:100px;line-height:125%;font-family:'Trebuchet MS';-inkscape-font-specification:'Trebuchet MS Bold';text-align:start;writing-mode:lr-tb;text-anchor:start"
         id="path4343" />
      <path
         d="m 673.13101,1484.8088 q 0,-15.2832 8.34961,-25.83 8.39844,-10.5957 22.41211,-10.5957 15.42969,0 23.58399,9.5703 8.15429,9.5703 8.15429,26.8554 0,17.2852 -8.54492,27.4414 -8.49609,10.1563 -24.16992,10.1563 -14.4043,0 -22.11914,-10.0586 -7.66602,-10.0586 -7.66602,-27.5391 z m 13.1836,0 q 0,12.5489 4.24804,19.4336 4.24805,6.8848 12.35352,6.8848 9.52148,0 14.50195,-6.7383 5.0293,-6.7383 5.0293,-19.5801 0,-25.1464 -18.55469,-25.1464 -8.49609,0 -13.03711,6.8359 -4.54101,6.7871 -4.54101,18.3105 z"
         style="font-style:normal;font-variant:normal;font-weight:bold;font-stretch:normal;font-size:100px;line-height:125%;font-family:'Trebuchet MS';-inkscape-font-specification:'Trebuchet MS Bold';text-align:start;writing-mode:lr-tb;text-anchor:start"
         id="path4345" />
      <path
         d="m 804.5275,1522.1624 -5.22461,0 -15.625,-45.1172 -15.18555,45.1172 -5.22461,0 -23.48633,-72.5098 13.23242,0 13.42774,43.1641 14.50195,-43.1641 5.56641,0 14.55078,43.1641 13.37891,-43.1641 13.23242,0 -23.14453,72.5098 z"
         style="font-style:normal;font-variant:normal;font-weight:bold;font-stretch:normal;font-size:100px;line-height:125%;font-family:'Trebuchet MS';-inkscape-font-specification:'Trebuchet MS Bold';text-align:start;writing-mode:lr-tb;text-anchor:start"
         id="path4347" />
    </g>
    <g
       style="font-style:normal;font-variant:normal;font-weight:bold;font-stretch:normal;font-size:87.5px;line-height:125%;font-family:'Trebuchet MS';-inkscape-font-specification:'Trebuchet MS Bold';text-align:start;letter-spacing:0px;word-spacing:0px;writing-mode:lr-tb;text-anchor:start;fill:#000000;fill-opacity:1;stroke:none;stroke-width:1px;stroke-linecap:butt;stroke-linejoin:miter;stroke-opacity:1"
       id="text4265">
      <path
         d="m 509.52017,1548.6896 0,12.561 18.85987,0 0,8.0933 -18.85987,0 0,24.5361 -9.52148,0 0,-53.6499 35.33935,0 0,8.4595 -25.81787,0 z"
         style="font-style:normal;font-variant:normal;font-weight:bold;font-stretch:normal;font-size:75px;line-height:125%;font-family:'Trebuchet MS';-inkscape-font-specification:'Trebuchet MS Bold';text-align:start;writing-mode:lr-tb;text-anchor:start"
         id="path4350" />
      <path
         d="m 574.04654,1593.88 -14.31885,-22.1558 q -2.16064,-0.037 -6.04248,-0.2563 l 0,22.4121 -9.88769,0 0,-53.6499 q 0.80566,0 6.18896,-0.2563 5.3833,-0.293 8.6792,-0.293 20.43457,0 20.43457,15.8203 0,4.7607 -2.81982,8.6792 -2.81983,3.9185 -7.1045,5.5298 l 15.85694,24.1699 -10.98633,0 z m -20.36133,-45.3735 0,14.9048 q 2.63672,0.2197 4.02832,0.2197 5.96924,0 8.71582,-1.6846 2.7832,-1.6846 2.7832,-6.5552 0,-3.955 -2.9663,-5.5297 -2.96631,-1.5748 -9.33838,-1.5748 -1.53809,0 -3.22266,0.2198 z"
         style="font-style:normal;font-variant:normal;font-weight:bold;font-stretch:normal;font-size:75px;line-height:125%;font-family:'Trebuchet MS';-inkscape-font-specification:'Trebuchet MS Bold';text-align:start;writing-mode:lr-tb;text-anchor:start"
         id="path4352" />
      <path
         d="m 586.93716,1566.5973 q 0,-11.4624 6.26221,-19.3726 6.29883,-7.9467 16.80908,-7.9467 11.57227,0 17.68799,7.1777 6.11572,7.1777 6.11572,20.1416 0,12.9639 -6.40869,20.581 -6.37207,7.6172 -18.12744,7.6172 -10.80322,0 -16.58935,-7.5439 -5.74952,-7.544 -5.74952,-20.6543 z m 9.8877,0 q 0,9.4116 3.18603,14.5752 3.18604,5.1636 9.26514,5.1636 7.14111,0 10.87647,-5.0538 3.77197,-5.0537 3.77197,-14.685 0,-18.8599 -13.91602,-18.8599 -6.37207,0 -9.77783,5.127 -3.40576,5.0903 -3.40576,13.7329 z"
         style="font-style:normal;font-variant:normal;font-weight:bold;font-stretch:normal;font-size:75px;line-height:125%;font-family:'Trebuchet MS';-inkscape-font-specification:'Trebuchet MS Bold';text-align:start;writing-mode:lr-tb;text-anchor:start"
         id="path4354" />
      <path
         d="m 692.25943,1593.9166 -9.22852,0 -5.5664,-28.9306 -10.80322,29.6264 -3.40577,0 -10.80322,-29.6264 -5.78613,28.9306 -9.1919,0 10.80323,-53.6865 5.05371,0 11.60888,36.145 11.35254,-36.145 5.01709,0 10.94971,53.6865 z"
         style="font-style:normal;font-variant:normal;font-weight:bold;font-stretch:normal;font-size:75px;line-height:125%;font-family:'Trebuchet MS';-inkscape-font-specification:'Trebuchet MS Bold';text-align:start;writing-mode:lr-tb;text-anchor:start"
         id="path4356" />
      <path
         d="m 699.07095,1559.4196 q 0,-2.7466 1.9043,-4.6509 1.94092,-1.9409 4.6875,-1.9409 2.74658,0 4.65088,1.9409 1.94092,1.9043 1.94092,4.6509 0,2.7465 -1.94092,4.6875 -1.9043,1.9409 -4.65088,1.9409 -2.74658,0 -4.6875,-1.9409 -1.9043,-1.941 -1.9043,-4.6875 z m 0,29.663 q 0,-2.7465 1.9043,-4.6508 1.94092,-1.941 4.6875,-1.941 2.74658,0 4.65088,1.941 1.94092,1.9043 1.94092,4.6508 0,2.7466 -1.94092,4.6875 -1.9043,1.941 -4.65088,1.941 -2.74658,0 -4.6875,-1.941 -1.9043,-1.9409 -1.9043,-4.6875 z"
         style="font-style:normal;font-variant:normal;font-weight:bold;font-stretch:normal;font-size:75px;line-height:125%;font-family:'Trebuchet MS';-inkscape-font-specification:'Trebuchet MS Bold';text-align:start;writing-mode:lr-tb;text-anchor:start"
         id="path4358" />
    </g>
    <text
       id="text4217"
       y="869.80273"
       x="-1058.6246"
       style="font-style:normal;font-variant:normal;font-weight:normal;font-stretch:normal;font-size:20px;line-height:125%;font-family:FontAwesome;-inkscape-font-specification:'FontAwesome, Normal';text-align:start;letter-spacing:0px;word-spacing:0px;writing-mode:lr-tb;text-anchor:start;fill:#000000;fill-opacity:1;stroke:none;stroke-width:1px;stroke-linecap:butt;stroke-linejoin:miter;stroke-opacity:1"
       xml:space="preserve"><tspan
         y="869.80273"
         x="-1058.6246"
         id="tspan4219">BUY NOW</tspan></text>
    <path
       id="rect4263"
       transform="translate(132.14323,309.68077)"
       d="m 0.70703125,-0.61328125 0,151.32031125 264.45898875,0 33.23402,-75.660156 -33.23402,-75.66015525 z M 58.449219,35.701172 c 9.309292,0 16.861328,7.553989 16.861328,16.863281 l 0,11.240235 c 0,1.536911 -1.271682,2.810546 -2.808594,2.810546 -1.536911,0 -2.810547,-1.273635 -2.810547,-2.810546 l 0,-11.240235 c 0,-6.191557 -5.05063,-11.242187 -11.242187,-11.242187 -6.191558,0 -11.242188,5.05063 -11.242188,11.242187 l 0,11.240235 c 0,1.536911 -1.273635,2.810546 -2.810547,2.810546 -1.536911,0 -2.808593,-1.273635 -2.808593,-2.810546 l 0,-11.240235 c 0,-9.309292 7.552036,-16.863281 16.861328,-16.863281 z m -30.914063,22.482422 11.242188,0 0,5.621094 c 0,3.117734 2.501406,5.621093 5.61914,5.621093 3.117735,0 5.621094,-2.503359 5.621094,-5.621093 l 0,-5.621094 16.863281,0 0,5.621094 c 0,3.117734 2.50336,5.621093 5.621094,5.621093 3.117735,0 5.619141,-2.503359 5.619141,-5.621093 l 0,-5.621094 11.242187,0 c 1.449088,0 2.6349,1.09873 2.810547,2.503906 l 3.775391,34.03125 -75,0 3.77539,-34.03125 c 0.175647,-1.405176 1.361459,-2.503906 2.810547,-2.503906 z m 190.544924,5.18164 c 3.64023,0 6.42191,1.128856 8.3457,3.386719 1.92379,2.257863 2.88672,5.425929 2.88672,9.503906 0,4.077977 -1.00944,7.314838 -3.02539,9.710938 -2.00443,2.396099 -4.85491,3.59375 -8.55273,3.59375 -3.39832,0 -6.00802,-1.185534 -7.82813,-3.558594 -1.80859,-2.37306 -2.71289,-5.622038 -2.71289,-9.746094 0,-3.605669 0.98521,-6.652367 2.95508,-9.140625 1.98139,-2.499776 4.62548,-3.75 7.93164,-3.75 z m -103.48633,0.22461 c 2.62649,0 4.67587,0.564428 6.15039,1.693359 1.48604,1.117412 2.22852,2.717665 2.22852,4.802735 0,2.004429 -1.05811,3.588462 -3.17774,4.751953 3.14488,1.094372 4.7168,3.352084 4.7168,6.773437 0,2.303942 -0.8699,4.136768 -2.60938,5.496094 -1.73947,1.347806 -3.98507,2.021484 -6.73828,2.021484 l -7.74218,0 0,-25.296875 c 3.40981,-0.161276 5.80102,-0.242187 7.17187,-0.242187 z m 13.83984,0.224609 4.49219,0 0,17.158203 c 0,1.359326 0.41472,2.465901 1.24414,3.31836 0.82942,0.852458 1.97039,1.277343 3.42188,1.277343 1.62428,0 2.88662,-0.414721 3.78515,-1.24414 0.91006,-0.840939 1.36524,-1.986017 1.36524,-3.4375 l 0,-17.072266 4.49219,0 0,17.417969 c 0,2.603454 -0.87596,4.642665 -2.62696,6.117187 -1.73947,1.474523 -4.06598,2.210938 -6.98047,2.210938 -2.93752,0 -5.20735,-0.720193 -6.80859,-2.160156 -1.58972,-1.439964 -2.38477,-3.501455 -2.38477,-6.185547 z m 21.47852,0 4.76953,0 5.99609,10.798828 6.01368,-10.798828 4.75195,0 -8.50195,14.929688 0,10.384765 -4.49219,0 0,-10.384765 z m 34.85351,0 2.16016,0 11.95703,15.275391 0,-15.275391 4.32031,0 0,25.660156 -1.83203,0 -12.28515,-16.017578 0,15.689453 -4.32032,0 z m 46.01563,0 4.68164,0 4.75195,15.275391 5.13282,-15.275391 1.96875,0 5.15039,15.275391 4.73437,-15.275391 4.6836,0 -8.19141,25.660156 -1.84961,0 -5.5293,-15.966797 -5.37304,15.966797 -1.84961,0 z m -116.29102,3.525391 c -0.7027,0 -1.56243,0.02834 -2.57617,0.08594 l 0,6.064453 c 0.69119,0.04608 1.41744,0.07031 2.17774,0.07031 2.926,0 4.38867,-1.100517 4.38867,-3.300781 0,-1.946831 -1.32918,-2.919922 -3.99024,-2.919922 z m 103.58985,0.01758 c -2.00443,0 -3.54195,0.805209 -4.61328,2.417969 -1.07134,1.601239 -1.60742,3.761817 -1.60742,6.480468 0,2.960566 0.50169,5.252677 1.5039,6.876953 1.00222,1.62428 2.45882,2.435547 4.3711,2.435547 2.24634,0 3.9578,-0.795045 5.13281,-2.384765 1.18653,-1.58972 1.77929,-3.898051 1.77929,-6.927735 0,-5.93265 -2.18891,-8.898437 -6.5664,-8.898437 z m -103.90235,9.589844 c -0.43774,0 -1.19233,0.01622 -2.26367,0.05078 l 0,8.363281 c 0.91006,0.08064 1.64843,0.121094 2.21289,0.121094 2.00443,0 3.45498,-0.339869 4.35352,-1.019531 0.91006,-0.679663 1.36523,-1.808519 1.36523,-3.386719 0,-1.439964 -0.42078,-2.487908 -1.26172,-3.144531 -0.84093,-0.656624 -2.30966,-0.984375 -4.40625,-0.984374 z m 71.20118,16.359375 c 2.34234,0 4.13477,0.756609 5.3789,2.269531 1.25181,1.512922 1.87891,3.620928 1.87891,6.324216 0,2.77241 -0.6271,4.94517 -1.87891,6.51953 -1.25181,1.56668 -3.04424,2.34961 -5.3789,2.34961 -2.12731,0 -3.79427,-0.82944 -5,-2.48828 -1.19805,-1.65884 -1.79688,-3.78509 -1.79688,-6.38086 0,-2.442175 0.61094,-4.485425 1.83203,-6.128904 1.22877,-1.643478 2.88362,-2.464843 4.96485,-2.464843 z m -15.4375,0.126953 c 4.05493,0 6.08398,1.612372 6.08398,4.83789 0,1.059814 -0.32768,2.014724 -0.98047,2.867184 -0.65278,0.84478 -1.42763,1.37273 -2.32617,1.58008 l 4.89648,7.76367 -2.63867,0 -4.5039,-7.24609 c -0.51455,0 -1.32979,-0.0384 -2.44336,-0.11524 l 0,7.36133 -2.30274,0 0,-16.876949 c 0.0845,0 0.67927,-0.02632 1.78516,-0.08008 1.11357,-0.06144 1.92282,-0.0918 2.42969,-0.0918 z m -16.72657,0.171875 10.42578,0 0,2.074219 -8.12109,0 0,4.6875 5.93359,0 0,1.95898 -5.93359,0 0,8.15625 -2.30469,0 z m 43.73047,0 1.04688,0 4.02148,12.314449 3.70899,-12.314449 1.03711,0 3.42187,16.876949 -2.18945,0 -2.00391,-10.83984 -3.6875,11.07031 -0.57617,0 -3.78906,-11.07031 -1.95899,10.83984 -2.1875,0 z m -11.5664,1.773437 c -1.42845,0 -2.51483,0.584623 -3.25977,1.751953 -0.74494,1.167331 -1.11719,2.757424 -1.11719,4.769529 0,1.93531 0.38033,3.55172 1.14063,4.84961 0.76798,1.29789 1.84628,1.94727 3.23633,1.94727 1.57436,0 2.77201,-0.59674 3.59375,-1.78711 0.82942,-1.19037 1.24414,-2.85942 1.24414,-5.00977 0,-4.346766 -1.61238,-6.521482 -4.83789,-6.521482 z m -15.99024,0.185547 c -0.23039,0 -0.68355,0.03843 -1.35937,0.115235 l 0,5.48242 c 0.55294,0.0768 1.09105,0.11523 1.61328,0.11523 1.38236,0 2.38783,-0.22254 3.01758,-0.66796 0.62974,-0.44544 0.94531,-1.240478 0.94531,-2.384769 0,-0.944616 -0.33785,-1.624353 -1.01367,-2.039062 -0.67583,-0.41471 -1.74397,-0.621094 -3.20313,-0.621094 z m -148.748045,1.964844 75.617187,0 1.53711,13.744141 c 0.08782,0.79041 -0.176184,1.58055 -0.703125,2.19531 -0.526941,0.57085 -1.31701,0.92383 -2.107422,0.92383 l -73.070313,0 c -0.790411,0 -1.58048,-0.35298 -2.107421,-0.92383 -0.526941,-0.61476 -0.790949,-1.4049 -0.703125,-2.19531 z m 193.722655,0.384765 c 0.47615,0 0.88279,0.169902 1.2207,0.507813 0.33792,0.337911 0.50586,0.744555 0.50586,1.220703 0,0.47615 -0.16794,0.88683 -0.50586,1.23242 -0.33791,0.33791 -0.74455,0.50586 -1.2207,0.50586 -0.47615,0 -0.88474,-0.16795 -1.22266,-0.50586 -0.33791,-0.34559 -0.50585,-0.75627 -0.50585,-1.23242 0,-0.476148 0.16794,-0.882792 0.50585,-1.220703 0.33792,-0.337911 0.74651,-0.507812 1.22266,-0.507813 z m 0,9.330076 c 0.47615,0 0.88279,0.1699 1.2207,0.50781 0.33792,0.33791 0.50586,0.74456 0.50586,1.22071 0,0.47614 -0.16794,0.88683 -0.50586,1.23242 -0.33791,0.33791 -0.74455,0.50781 -1.2207,0.50781 -0.47615,0 -0.88474,-0.1699 -1.22266,-0.50781 -0.33791,-0.34559 -0.50585,-0.75628 -0.50585,-1.23242 0,-0.47615 0.16794,-0.8828 0.50585,-1.22071 0.33792,-0.33791 0.74651,-0.50781 1.22266,-0.50781 z"
       style="opacity:1;fill:#E99100;fill-opacity:1;stroke:none;stroke-width:3.3661418;stroke-miterlimit:4;stroke-dasharray:none;stroke-opacity:1" />
  </g>
</svg>
